<?xml version="1.0" encoding="utf-8" standalone="no"?>
<!DOCTYPE svg PUBLIC "-//W3C//DTD SVG 1.1//EN"
  "http://www.w3.org/Graphics/SVG/1.1/DTD/svg11.dtd">
<svg xmlns:xlink="http://www.w3.org/1999/xlink" width="720pt" height="576pt" viewBox="0 0 720 576" xmlns="http://www.w3.org/2000/svg" version="1.1">
 <metadata>
  <rdf:RDF xmlns:dc="http://purl.org/dc/elements/1.1/" xmlns:cc="http://creativecommons.org/ns#" xmlns:rdf="http://www.w3.org/1999/02/22-rdf-syntax-ns#">
   <cc:Work>
    <dc:type rdf:resource="http://purl.org/dc/dcmitype/StillImage"/>
    <dc:date>2026-01-27T13:11:54.508033</dc:date>
    <dc:format>image/svg+xml</dc:format>
    <dc:creator>
     <cc:Agent>
      <dc:title>Matplotlib v3.10.8, https://matplotlib.org/</dc:title>
     </cc:Agent>
    </dc:creator>
   </cc:Work>
  </rdf:RDF>
 </metadata>
 <defs>
  <style type="text/css">*{stroke-linejoin: round; stroke-linecap: butt}</style>
 </defs>
 <g id="figure_1">
  <g id="patch_1">
   <path d="M 0 576 
L 720 576 
L 720 0 
L 0 0 
z
" style="fill: #ffffff"/>
  </g>
  <g id="axes_1">
   <g id="patch_2">
    <path d="M 98.62 534.04 
L 701.280292 534.04 
L 701.280292 41.6 
L 98.62 41.6 
z
" style="fill: #ffffff"/>
   </g>
   <g id="patch_3">
    <path d="M 98.62 511.656364 
L 128.670376 511.656364 
L 128.670376 499.22101 
L 98.62 499.22101 
z
" clip-path="url(#pd90b55c36a)" style="fill: #e0e0e0"/>
   </g>
   <g id="patch_4">
    <path d="M 98.62 496.112172 
L 128.670376 496.112172 
L 128.670376 483.676818 
L 98.62 483.676818 
z
" clip-path="url(#pd90b55c36a)" style="fill: #e0e0e0"/>
   </g>
   <g id="patch_5">
    <path d="M 98.62 480.56798 
L 128.670376 480.56798 
L 128.670376 468.132626 
L 98.62 468.132626 
z
" clip-path="url(#pd90b55c36a)" style="fill: #e0e0e0"/>
   </g>
   <g id="patch_6">
    <path d="M 98.62 465.023788 
L 128.670376 465.023788 
L 128.670376 452.588434 
L 98.62 452.588434 
z
" clip-path="url(#pd90b55c36a)" style="fill: #e0e0e0"/>
   </g>
   <g id="patch_7">
    <path d="M 98.62 449.479596 
L 128.670376 449.479596 
L 128.670376 437.044242 
L 98.62 437.044242 
z
" clip-path="url(#pd90b55c36a)" style="fill: #e0e0e0"/>
   </g>
   <g id="patch_8">
    <path d="M 98.62 433.935404 
L 158.720752 433.935404 
L 158.720752 421.500051 
L 98.62 421.500051 
z
" clip-path="url(#pd90b55c36a)" style="fill: #e0e0e0"/>
   </g>
   <g id="patch_9">
    <path d="M 98.62 418.391212 
L 158.720752 418.391212 
L 158.720752 405.955859 
L 98.62 405.955859 
z
" clip-path="url(#pd90b55c36a)" style="fill: #e0e0e0"/>
   </g>
   <g id="patch_10">
    <path d="M 98.62 402.84702 
L 158.720752 402.84702 
L 158.720752 390.411667 
L 98.62 390.411667 
z
" clip-path="url(#pd90b55c36a)" style="fill: #e0e0e0"/>
   </g>
   <g id="patch_11">
    <path d="M 98.62 387.302828 
L 158.720752 387.302828 
L 158.720752 374.867475 
L 98.62 374.867475 
z
" clip-path="url(#pd90b55c36a)" style="fill: #e0e0e0"/>
   </g>
   <g id="patch_12">
    <path d="M 98.62 371.758636 
L 173.74594 371.758636 
L 173.74594 359.323283 
L 98.62 359.323283 
z
" clip-path="url(#pd90b55c36a)" style="fill: #e0e0e0"/>
   </g>
   <g id="patch_13">
    <path d="M 98.62 356.214444 
L 173.74594 356.214444 
L 173.74594 343.779091 
L 98.62 343.779091 
z
" clip-path="url(#pd90b55c36a)" style="fill: #e0e0e0"/>
   </g>
   <g id="patch_14">
    <path d="M 98.62 340.670253 
L 173.74594 340.670253 
L 173.74594 328.234899 
L 98.62 328.234899 
z
" clip-path="url(#pd90b55c36a)" style="fill: #e0e0e0"/>
   </g>
   <g id="patch_15">
    <path d="M 98.62 325.126061 
L 173.74594 325.126061 
L 173.74594 312.690707 
L 98.62 312.690707 
z
" clip-path="url(#pd90b55c36a)" style="fill: #e0e0e0"/>
   </g>
   <g id="patch_16">
    <path d="M 98.62 309.581869 
L 197.786241 309.581869 
L 197.786241 297.146515 
L 98.62 297.146515 
z
" clip-path="url(#pd90b55c36a)" style="fill: #e0e0e0"/>
   </g>
   <g id="patch_17">
    <path d="M 98.62 294.037677 
L 227.836617 294.037677 
L 227.836617 281.602323 
L 98.62 281.602323 
z
" clip-path="url(#pd90b55c36a)" style="fill: #e0e0e0"/>
   </g>
   <g id="patch_18">
    <path d="M 98.62 278.493485 
L 242.861805 278.493485 
L 242.861805 266.058131 
L 98.62 266.058131 
z
" clip-path="url(#pd90b55c36a)" style="fill: #e0e0e0"/>
   </g>
   <g id="patch_19">
    <path d="M 98.62 262.949293 
L 242.861805 262.949293 
L 242.861805 250.513939 
L 98.62 250.513939 
z
" clip-path="url(#pd90b55c36a)" style="fill: #e0e0e0"/>
   </g>
   <g id="patch_20">
    <path d="M 98.62 247.405101 
L 248.87188 247.405101 
L 248.87188 234.969747 
L 98.62 234.969747 
z
" clip-path="url(#pd90b55c36a)" style="fill: #e0e0e0"/>
   </g>
   <g id="patch_21">
    <path d="M 98.62 231.860909 
L 248.87188 231.860909 
L 248.87188 219.425556 
L 98.62 219.425556 
z
" clip-path="url(#pd90b55c36a)" style="fill: #e0e0e0"/>
   </g>
   <g id="patch_22">
    <path d="M 98.62 216.316717 
L 248.87188 216.316717 
L 248.87188 203.881364 
L 98.62 203.881364 
z
" clip-path="url(#pd90b55c36a)" style="fill: #e0e0e0"/>
   </g>
   <g id="patch_23">
    <path d="M 98.62 200.772525 
L 251.876918 200.772525 
L 251.876918 188.337172 
L 98.62 188.337172 
z
" clip-path="url(#pd90b55c36a)" style="fill: #e0e0e0"/>
   </g>
   <g id="patch_24">
    <path d="M 98.62 185.228333 
L 281.927294 185.228333 
L 281.927294 172.79298 
L 98.62 172.79298 
z
" clip-path="url(#pd90b55c36a)" style="fill: #e0e0e0"/>
   </g>
   <g id="patch_25">
    <path d="M 98.62 169.684141 
L 287.937369 169.684141 
L 287.937369 157.248788 
L 98.62 157.248788 
z
" clip-path="url(#pd90b55c36a)" style="fill: #e0e0e0"/>
   </g>
   <g id="patch_26">
    <path d="M 98.62 154.139949 
L 360.058272 154.139949 
L 360.058272 141.704596 
L 98.62 141.704596 
z
" clip-path="url(#pd90b55c36a)" style="fill: #e0e0e0"/>
   </g>
   <g id="patch_27">
    <path d="M 98.62 138.595758 
L 387.10361 138.595758 
L 387.10361 126.160404 
L 98.62 126.160404 
z
" clip-path="url(#pd90b55c36a)" style="fill: #e0e0e0"/>
   </g>
   <g id="patch_28">
    <path d="M 98.62 123.051566 
L 396.118723 123.051566 
L 396.118723 110.616212 
L 98.62 110.616212 
z
" clip-path="url(#pd90b55c36a)" style="fill: #e0e0e0"/>
   </g>
   <g id="patch_29">
    <path d="M 98.62 107.507374 
L 399.123761 107.507374 
L 399.123761 95.07202 
L 98.62 95.07202 
z
" clip-path="url(#pd90b55c36a)" style="fill: #e0e0e0"/>
   </g>
   <g id="patch_30">
    <path d="M 98.62 91.963182 
L 399.123761 91.963182 
L 399.123761 79.527828 
L 98.62 79.527828 
z
" clip-path="url(#pd90b55c36a)" style="fill: #e0e0e0"/>
   </g>
   <g id="patch_31">
    <path d="M 98.62 76.41899 
L 672.582183 76.41899 
L 672.582183 63.983636 
L 98.62 63.983636 
z
" clip-path="url(#pd90b55c36a)" style="fill: #e0e0e0"/>
   </g>
   <g id="patch_32">
    <path d="M 98.62 511.656364 
L 101.625038 511.656364 
L 101.625038 499.22101 
L 98.62 499.22101 
z
" clip-path="url(#pd90b55c36a)" style="fill: #cc8899"/>
   </g>
   <g id="patch_33">
    <path d="M 98.62 496.112172 
L 107.635113 496.112172 
L 107.635113 483.676818 
L 98.62 483.676818 
z
" clip-path="url(#pd90b55c36a)" style="fill: #cc8899"/>
   </g>
   <g id="patch_34">
    <path d="M 98.62 480.56798 
L 98.62 480.56798 
L 98.62 468.132626 
L 98.62 468.132626 
z
" clip-path="url(#pd90b55c36a)" style="fill: #cc8899"/>
   </g>
   <g id="patch_35">
    <path d="M 98.62 465.023788 
L 107.635113 465.023788 
L 107.635113 452.588434 
L 98.62 452.588434 
z
" clip-path="url(#pd90b55c36a)" style="fill: #cc8899"/>
   </g>
   <g id="patch_36">
    <path d="M 98.62 449.479596 
L 98.62 449.479596 
L 98.62 437.044242 
L 98.62 437.044242 
z
" clip-path="url(#pd90b55c36a)" style="fill: #cc8899"/>
   </g>
   <g id="patch_37">
    <path d="M 98.62 433.935404 
L 98.62 433.935404 
L 98.62 421.500051 
L 98.62 421.500051 
z
" clip-path="url(#pd90b55c36a)" style="fill: #cc8899"/>
   </g>
   <g id="patch_38">
    <path d="M 98.62 418.391212 
L 107.635113 418.391212 
L 107.635113 405.955859 
L 98.62 405.955859 
z
" clip-path="url(#pd90b55c36a)" style="fill: #cc8899"/>
   </g>
   <g id="patch_39">
    <path d="M 98.62 402.84702 
L 98.62 402.84702 
L 98.62 390.411667 
L 98.62 390.411667 
z
" clip-path="url(#pd90b55c36a)" style="fill: #cc8899"/>
   </g>
   <g id="patch_40">
    <path d="M 98.62 387.302828 
L 122.660301 387.302828 
L 122.660301 374.867475 
L 98.62 374.867475 
z
" clip-path="url(#pd90b55c36a)" style="fill: #cc8899"/>
   </g>
   <g id="patch_41">
    <path d="M 98.62 371.758636 
L 134.680451 371.758636 
L 134.680451 359.323283 
L 98.62 359.323283 
z
" clip-path="url(#pd90b55c36a)" style="fill: #cc8899"/>
   </g>
   <g id="patch_42">
    <path d="M 98.62 356.214444 
L 143.695564 356.214444 
L 143.695564 343.779091 
L 98.62 343.779091 
z
" clip-path="url(#pd90b55c36a)" style="fill: #cc8899"/>
   </g>
   <g id="patch_43">
    <path d="M 98.62 340.670253 
L 116.650226 340.670253 
L 116.650226 328.234899 
L 98.62 328.234899 
z
" clip-path="url(#pd90b55c36a)" style="fill: #cc8899"/>
   </g>
   <g id="patch_44">
    <path d="M 98.62 325.126061 
L 101.625038 325.126061 
L 101.625038 312.690707 
L 98.62 312.690707 
z
" clip-path="url(#pd90b55c36a)" style="fill: #cc8899"/>
   </g>
   <g id="patch_45">
    <path d="M 98.62 309.581869 
L 143.695564 309.581869 
L 143.695564 297.146515 
L 98.62 297.146515 
z
" clip-path="url(#pd90b55c36a)" style="fill: #cc8899"/>
   </g>
   <g id="patch_46">
    <path d="M 98.62 294.037677 
L 113.645188 294.037677 
L 113.645188 281.602323 
L 98.62 281.602323 
z
" clip-path="url(#pd90b55c36a)" style="fill: #cc8899"/>
   </g>
   <g id="patch_47">
    <path d="M 98.62 278.493485 
L 110.64015 278.493485 
L 110.64015 266.058131 
L 98.62 266.058131 
z
" clip-path="url(#pd90b55c36a)" style="fill: #cc8899"/>
   </g>
   <g id="patch_48">
    <path d="M 98.62 262.949293 
L 131.675414 262.949293 
L 131.675414 250.513939 
L 98.62 250.513939 
z
" clip-path="url(#pd90b55c36a)" style="fill: #cc8899"/>
   </g>
   <g id="patch_49">
    <path d="M 98.62 247.405101 
L 158.720752 247.405101 
L 158.720752 234.969747 
L 98.62 234.969747 
z
" clip-path="url(#pd90b55c36a)" style="fill: #cc8899"/>
   </g>
   <g id="patch_50">
    <path d="M 98.62 231.860909 
L 113.645188 231.860909 
L 113.645188 219.425556 
L 98.62 219.425556 
z
" clip-path="url(#pd90b55c36a)" style="fill: #cc8899"/>
   </g>
   <g id="patch_51">
    <path d="M 98.62 216.316717 
L 110.64015 216.316717 
L 110.64015 203.881364 
L 98.62 203.881364 
z
" clip-path="url(#pd90b55c36a)" style="fill: #cc8899"/>
   </g>
   <g id="patch_52">
    <path d="M 98.62 200.772525 
L 143.695564 200.772525 
L 143.695564 188.337172 
L 98.62 188.337172 
z
" clip-path="url(#pd90b55c36a)" style="fill: #cc8899"/>
   </g>
   <g id="patch_53">
    <path d="M 98.62 185.228333 
L 143.695564 185.228333 
L 143.695564 172.79298 
L 98.62 172.79298 
z
" clip-path="url(#pd90b55c36a)" style="fill: #cc8899"/>
   </g>
   <g id="patch_54">
    <path d="M 98.62 169.684141 
L 179.756015 169.684141 
L 179.756015 157.248788 
L 98.62 157.248788 
z
" clip-path="url(#pd90b55c36a)" style="fill: #cc8899"/>
   </g>
   <g id="patch_55">
    <path d="M 98.62 154.139949 
L 158.720752 154.139949 
L 158.720752 141.704596 
L 98.62 141.704596 
z
" clip-path="url(#pd90b55c36a)" style="fill: #cc8899"/>
   </g>
   <g id="patch_56">
    <path d="M 98.62 138.595758 
L 164.730827 138.595758 
L 164.730827 126.160404 
L 98.62 126.160404 
z
" clip-path="url(#pd90b55c36a)" style="fill: #cc8899"/>
   </g>
   <g id="patch_57">
    <path d="M 98.62 123.051566 
L 185.766091 123.051566 
L 185.766091 110.616212 
L 98.62 110.616212 
z
" clip-path="url(#pd90b55c36a)" style="fill: #cc8899"/>
   </g>
   <g id="patch_58">
    <path d="M 98.62 107.507374 
L 179.756015 107.507374 
L 179.756015 95.07202 
L 98.62 95.07202 
z
" clip-path="url(#pd90b55c36a)" style="fill: #cc8899"/>
   </g>
   <g id="patch_59">
    <path d="M 98.62 91.963182 
L 233.846692 91.963182 
L 233.846692 79.527828 
L 98.62 79.527828 
z
" clip-path="url(#pd90b55c36a)" style="fill: #cc8899"/>
   </g>
   <g id="patch_60">
    <path d="M 98.62 76.41899 
L 396.118723 76.41899 
L 396.118723 63.983636 
L 98.62 63.983636 
z
" clip-path="url(#pd90b55c36a)" style="fill: #cc8899"/>
   </g>
   <g id="matplotlib.axis_1">
    <g id="xtick_1">
     <g id="line2d_1">
      <defs>
       <path id="m0c8c8643d1" d="M 0 0 
L 0 3.5 
" style="stroke: #000000; stroke-width: 0.8"/>
      </defs>
      <g>
       <use xlink:href="#m0c8c8643d1" x="98.62" y="534.04" style="stroke: #000000; stroke-width: 0.8"/>
      </g>
     </g>
     <g id="text_1">
      <!-- 0 -->
      <g transform="translate(95.43875 548.638438) scale(0.1 -0.1)">
       <defs>
        <path id="DejaVuSans-30" d="M 2034 4250 
Q 1547 4250 1301 3770 
Q 1056 3291 1056 2328 
Q 1056 1369 1301 889 
Q 1547 409 2034 409 
Q 2525 409 2770 889 
Q 3016 1369 3016 2328 
Q 3016 3291 2770 3770 
Q 2525 4250 2034 4250 
z
M 2034 4750 
Q 2819 4750 3233 4129 
Q 3647 3509 3647 2328 
Q 3647 1150 3233 529 
Q 2819 -91 2034 -91 
Q 1250 -91 836 529 
Q 422 1150 422 2328 
Q 422 3509 836 4129 
Q 1250 4750 2034 4750 
z
" transform="scale(0.015625)"/>
       </defs>
       <use xlink:href="#DejaVuSans-30"/>
      </g>
     </g>
    </g>
    <g id="xtick_2">
     <g id="line2d_2">
      <g>
       <use xlink:href="#m0c8c8643d1" x="173.74594" y="534.04" style="stroke: #000000; stroke-width: 0.8"/>
      </g>
     </g>
     <g id="text_2">
      <!-- 25 -->
      <g transform="translate(167.38344 548.638438) scale(0.1 -0.1)">
       <defs>
        <path id="DejaVuSans-32" d="M 1228 531 
L 3431 531 
L 3431 0 
L 469 0 
L 469 531 
Q 828 903 1448 1529 
Q 2069 2156 2228 2338 
Q 2531 2678 2651 2914 
Q 2772 3150 2772 3378 
Q 2772 3750 2511 3984 
Q 2250 4219 1831 4219 
Q 1534 4219 1204 4116 
Q 875 4013 500 3803 
L 500 4441 
Q 881 4594 1212 4672 
Q 1544 4750 1819 4750 
Q 2544 4750 2975 4387 
Q 3406 4025 3406 3419 
Q 3406 3131 3298 2873 
Q 3191 2616 2906 2266 
Q 2828 2175 2409 1742 
Q 1991 1309 1228 531 
z
" transform="scale(0.015625)"/>
        <path id="DejaVuSans-35" d="M 691 4666 
L 3169 4666 
L 3169 4134 
L 1269 4134 
L 1269 2991 
Q 1406 3038 1543 3061 
Q 1681 3084 1819 3084 
Q 2600 3084 3056 2656 
Q 3513 2228 3513 1497 
Q 3513 744 3044 326 
Q 2575 -91 1722 -91 
Q 1428 -91 1123 -41 
Q 819 9 494 109 
L 494 744 
Q 775 591 1075 516 
Q 1375 441 1709 441 
Q 2250 441 2565 725 
Q 2881 1009 2881 1497 
Q 2881 1984 2565 2268 
Q 2250 2553 1709 2553 
Q 1456 2553 1204 2497 
Q 953 2441 691 2322 
L 691 4666 
z
" transform="scale(0.015625)"/>
       </defs>
       <use xlink:href="#DejaVuSans-32"/>
       <use xlink:href="#DejaVuSans-35" transform="translate(63.623047 0)"/>
      </g>
     </g>
    </g>
    <g id="xtick_3">
     <g id="line2d_3">
      <g>
       <use xlink:href="#m0c8c8643d1" x="248.87188" y="534.04" style="stroke: #000000; stroke-width: 0.8"/>
      </g>
     </g>
     <g id="text_3">
      <!-- 50 -->
      <g transform="translate(242.50938 548.638438) scale(0.1 -0.1)">
       <use xlink:href="#DejaVuSans-35"/>
       <use xlink:href="#DejaVuSans-30" transform="translate(63.623047 0)"/>
      </g>
     </g>
    </g>
    <g id="xtick_4">
     <g id="line2d_4">
      <g>
       <use xlink:href="#m0c8c8643d1" x="323.99782" y="534.04" style="stroke: #000000; stroke-width: 0.8"/>
      </g>
     </g>
     <g id="text_4">
      <!-- 75 -->
      <g transform="translate(317.63532 548.638438) scale(0.1 -0.1)">
       <defs>
        <path id="DejaVuSans-37" d="M 525 4666 
L 3525 4666 
L 3525 4397 
L 1831 0 
L 1172 0 
L 2766 4134 
L 525 4134 
L 525 4666 
z
" transform="scale(0.015625)"/>
       </defs>
       <use xlink:href="#DejaVuSans-37"/>
       <use xlink:href="#DejaVuSans-35" transform="translate(63.623047 0)"/>
      </g>
     </g>
    </g>
    <g id="xtick_5">
     <g id="line2d_5">
      <g>
       <use xlink:href="#m0c8c8643d1" x="399.123761" y="534.04" style="stroke: #000000; stroke-width: 0.8"/>
      </g>
     </g>
     <g id="text_5">
      <!-- 100 -->
      <g transform="translate(389.580011 548.638438) scale(0.1 -0.1)">
       <defs>
        <path id="DejaVuSans-31" d="M 794 531 
L 1825 531 
L 1825 4091 
L 703 3866 
L 703 4441 
L 1819 4666 
L 2450 4666 
L 2450 531 
L 3481 531 
L 3481 0 
L 794 0 
L 794 531 
z
" transform="scale(0.015625)"/>
       </defs>
       <use xlink:href="#DejaVuSans-31"/>
       <use xlink:href="#DejaVuSans-30" transform="translate(63.623047 0)"/>
       <use xlink:href="#DejaVuSans-30" transform="translate(127.246094 0)"/>
      </g>
     </g>
    </g>
    <g id="xtick_6">
     <g id="line2d_6">
      <g>
       <use xlink:href="#m0c8c8643d1" x="474.249701" y="534.04" style="stroke: #000000; stroke-width: 0.8"/>
      </g>
     </g>
     <g id="text_6">
      <!-- 125 -->
      <g transform="translate(464.705951 548.638438) scale(0.1 -0.1)">
       <use xlink:href="#DejaVuSans-31"/>
       <use xlink:href="#DejaVuSans-32" transform="translate(63.623047 0)"/>
       <use xlink:href="#DejaVuSans-35" transform="translate(127.246094 0)"/>
      </g>
     </g>
    </g>
    <g id="xtick_7">
     <g id="line2d_7">
      <g>
       <use xlink:href="#m0c8c8643d1" x="549.375641" y="534.04" style="stroke: #000000; stroke-width: 0.8"/>
      </g>
     </g>
     <g id="text_7">
      <!-- 150 -->
      <g transform="translate(539.831891 548.638438) scale(0.1 -0.1)">
       <use xlink:href="#DejaVuSans-31"/>
       <use xlink:href="#DejaVuSans-35" transform="translate(63.623047 0)"/>
       <use xlink:href="#DejaVuSans-30" transform="translate(127.246094 0)"/>
      </g>
     </g>
    </g>
    <g id="xtick_8">
     <g id="line2d_8">
      <g>
       <use xlink:href="#m0c8c8643d1" x="624.501581" y="534.04" style="stroke: #000000; stroke-width: 0.8"/>
      </g>
     </g>
     <g id="text_8">
      <!-- 175 -->
      <g transform="translate(614.957831 548.638438) scale(0.1 -0.1)">
       <use xlink:href="#DejaVuSans-31"/>
       <use xlink:href="#DejaVuSans-37" transform="translate(63.623047 0)"/>
       <use xlink:href="#DejaVuSans-35" transform="translate(127.246094 0)"/>
      </g>
     </g>
    </g>
    <g id="xtick_9">
     <g id="line2d_9">
      <g>
       <use xlink:href="#m0c8c8643d1" x="699.627521" y="534.04" style="stroke: #000000; stroke-width: 0.8"/>
      </g>
     </g>
     <g id="text_9">
      <!-- 200 -->
      <g transform="translate(690.083771 548.638438) scale(0.1 -0.1)">
       <use xlink:href="#DejaVuSans-32"/>
       <use xlink:href="#DejaVuSans-30" transform="translate(63.623047 0)"/>
       <use xlink:href="#DejaVuSans-30" transform="translate(127.246094 0)"/>
      </g>
     </g>
    </g>
    <g id="text_10">
     <!-- Number of Unique Artists Cited -->
     <g transform="translate(311.600146 562.316563) scale(0.1 -0.1)">
      <defs>
       <path id="DejaVuSans-Bold-4e" d="M 588 4666 
L 1931 4666 
L 3628 1466 
L 3628 4666 
L 4769 4666 
L 4769 0 
L 3425 0 
L 1728 3200 
L 1728 0 
L 588 0 
L 588 4666 
z
" transform="scale(0.015625)"/>
       <path id="DejaVuSans-Bold-75" d="M 500 1363 
L 500 3500 
L 1625 3500 
L 1625 3150 
Q 1625 2866 1622 2436 
Q 1619 2006 1619 1863 
Q 1619 1441 1641 1255 
Q 1663 1069 1716 984 
Q 1784 875 1895 815 
Q 2006 756 2150 756 
Q 2500 756 2700 1025 
Q 2900 1294 2900 1772 
L 2900 3500 
L 4019 3500 
L 4019 0 
L 2900 0 
L 2900 506 
Q 2647 200 2364 54 
Q 2081 -91 1741 -91 
Q 1134 -91 817 281 
Q 500 653 500 1363 
z
" transform="scale(0.015625)"/>
       <path id="DejaVuSans-Bold-6d" d="M 3781 2919 
Q 3994 3244 4286 3414 
Q 4578 3584 4928 3584 
Q 5531 3584 5847 3212 
Q 6163 2841 6163 2131 
L 6163 0 
L 5038 0 
L 5038 1825 
Q 5041 1866 5042 1909 
Q 5044 1953 5044 2034 
Q 5044 2406 4934 2573 
Q 4825 2741 4581 2741 
Q 4263 2741 4089 2478 
Q 3916 2216 3909 1719 
L 3909 0 
L 2784 0 
L 2784 1825 
Q 2784 2406 2684 2573 
Q 2584 2741 2328 2741 
Q 2006 2741 1831 2477 
Q 1656 2213 1656 1722 
L 1656 0 
L 531 0 
L 531 3500 
L 1656 3500 
L 1656 2988 
Q 1863 3284 2130 3434 
Q 2397 3584 2719 3584 
Q 3081 3584 3359 3409 
Q 3638 3234 3781 2919 
z
" transform="scale(0.015625)"/>
       <path id="DejaVuSans-Bold-62" d="M 2400 722 
Q 2759 722 2948 984 
Q 3138 1247 3138 1747 
Q 3138 2247 2948 2509 
Q 2759 2772 2400 2772 
Q 2041 2772 1848 2508 
Q 1656 2244 1656 1747 
Q 1656 1250 1848 986 
Q 2041 722 2400 722 
z
M 1656 2988 
Q 1888 3294 2169 3439 
Q 2450 3584 2816 3584 
Q 3463 3584 3878 3070 
Q 4294 2556 4294 1747 
Q 4294 938 3878 423 
Q 3463 -91 2816 -91 
Q 2450 -91 2169 54 
Q 1888 200 1656 506 
L 1656 0 
L 538 0 
L 538 4863 
L 1656 4863 
L 1656 2988 
z
" transform="scale(0.015625)"/>
       <path id="DejaVuSans-Bold-65" d="M 4031 1759 
L 4031 1441 
L 1416 1441 
Q 1456 1047 1700 850 
Q 1944 653 2381 653 
Q 2734 653 3104 758 
Q 3475 863 3866 1075 
L 3866 213 
Q 3469 63 3072 -14 
Q 2675 -91 2278 -91 
Q 1328 -91 801 392 
Q 275 875 275 1747 
Q 275 2603 792 3093 
Q 1309 3584 2216 3584 
Q 3041 3584 3536 3087 
Q 4031 2591 4031 1759 
z
M 2881 2131 
Q 2881 2450 2695 2645 
Q 2509 2841 2209 2841 
Q 1884 2841 1681 2658 
Q 1478 2475 1428 2131 
L 2881 2131 
z
" transform="scale(0.015625)"/>
       <path id="DejaVuSans-Bold-72" d="M 3138 2547 
Q 2991 2616 2845 2648 
Q 2700 2681 2553 2681 
Q 2122 2681 1889 2404 
Q 1656 2128 1656 1613 
L 1656 0 
L 538 0 
L 538 3500 
L 1656 3500 
L 1656 2925 
Q 1872 3269 2151 3426 
Q 2431 3584 2822 3584 
Q 2878 3584 2943 3579 
Q 3009 3575 3134 3559 
L 3138 2547 
z
" transform="scale(0.015625)"/>
       <path id="DejaVuSans-Bold-20" transform="scale(0.015625)"/>
       <path id="DejaVuSans-Bold-6f" d="M 2203 2784 
Q 1831 2784 1636 2517 
Q 1441 2250 1441 1747 
Q 1441 1244 1636 976 
Q 1831 709 2203 709 
Q 2569 709 2762 976 
Q 2956 1244 2956 1747 
Q 2956 2250 2762 2517 
Q 2569 2784 2203 2784 
z
M 2203 3584 
Q 3106 3584 3614 3096 
Q 4122 2609 4122 1747 
Q 4122 884 3614 396 
Q 3106 -91 2203 -91 
Q 1297 -91 786 396 
Q 275 884 275 1747 
Q 275 2609 786 3096 
Q 1297 3584 2203 3584 
z
" transform="scale(0.015625)"/>
       <path id="DejaVuSans-Bold-66" d="M 2841 4863 
L 2841 4128 
L 2222 4128 
Q 1984 4128 1890 4042 
Q 1797 3956 1797 3744 
L 1797 3500 
L 2753 3500 
L 2753 2700 
L 1797 2700 
L 1797 0 
L 678 0 
L 678 2700 
L 122 2700 
L 122 3500 
L 678 3500 
L 678 3744 
Q 678 4316 997 4589 
Q 1316 4863 1984 4863 
L 2841 4863 
z
" transform="scale(0.015625)"/>
       <path id="DejaVuSans-Bold-55" d="M 588 4666 
L 1791 4666 
L 1791 1869 
Q 1791 1291 1980 1042 
Q 2169 794 2597 794 
Q 3028 794 3217 1042 
Q 3406 1291 3406 1869 
L 3406 4666 
L 4609 4666 
L 4609 1869 
Q 4609 878 4112 393 
Q 3616 -91 2597 -91 
Q 1581 -91 1084 393 
Q 588 878 588 1869 
L 588 4666 
z
" transform="scale(0.015625)"/>
       <path id="DejaVuSans-Bold-6e" d="M 4056 2131 
L 4056 0 
L 2931 0 
L 2931 347 
L 2931 1631 
Q 2931 2084 2911 2256 
Q 2891 2428 2841 2509 
Q 2775 2619 2662 2680 
Q 2550 2741 2406 2741 
Q 2056 2741 1856 2470 
Q 1656 2200 1656 1722 
L 1656 0 
L 538 0 
L 538 3500 
L 1656 3500 
L 1656 2988 
Q 1909 3294 2193 3439 
Q 2478 3584 2822 3584 
Q 3428 3584 3742 3212 
Q 4056 2841 4056 2131 
z
" transform="scale(0.015625)"/>
       <path id="DejaVuSans-Bold-69" d="M 538 3500 
L 1656 3500 
L 1656 0 
L 538 0 
L 538 3500 
z
M 538 4863 
L 1656 4863 
L 1656 3950 
L 538 3950 
L 538 4863 
z
" transform="scale(0.015625)"/>
       <path id="DejaVuSans-Bold-71" d="M 2181 2772 
Q 1825 2772 1636 2509 
Q 1447 2247 1447 1747 
Q 1447 1247 1636 984 
Q 1825 722 2181 722 
Q 2541 722 2730 984 
Q 2919 1247 2919 1747 
Q 2919 2247 2730 2509 
Q 2541 2772 2181 2772 
z
M 2919 506 
Q 2688 197 2409 53 
Q 2131 -91 1766 -91 
Q 1119 -91 703 423 
Q 288 938 288 1747 
Q 288 2556 703 3067 
Q 1119 3578 1766 3578 
Q 2131 3578 2409 3434 
Q 2688 3291 2919 2981 
L 2919 3500 
L 4044 3500 
L 4044 -1331 
L 2919 -1331 
L 2919 506 
z
" transform="scale(0.015625)"/>
       <path id="DejaVuSans-Bold-41" d="M 3419 850 
L 1538 850 
L 1241 0 
L 31 0 
L 1759 4666 
L 3194 4666 
L 4922 0 
L 3713 0 
L 3419 850 
z
M 1838 1716 
L 3116 1716 
L 2478 3572 
L 1838 1716 
z
" transform="scale(0.015625)"/>
       <path id="DejaVuSans-Bold-74" d="M 1759 4494 
L 1759 3500 
L 2913 3500 
L 2913 2700 
L 1759 2700 
L 1759 1216 
Q 1759 972 1856 886 
Q 1953 800 2241 800 
L 2816 800 
L 2816 0 
L 1856 0 
Q 1194 0 917 276 
Q 641 553 641 1216 
L 641 2700 
L 84 2700 
L 84 3500 
L 641 3500 
L 641 4494 
L 1759 4494 
z
" transform="scale(0.015625)"/>
       <path id="DejaVuSans-Bold-73" d="M 3272 3391 
L 3272 2541 
Q 2913 2691 2578 2766 
Q 2244 2841 1947 2841 
Q 1628 2841 1473 2761 
Q 1319 2681 1319 2516 
Q 1319 2381 1436 2309 
Q 1553 2238 1856 2203 
L 2053 2175 
Q 2913 2066 3209 1816 
Q 3506 1566 3506 1031 
Q 3506 472 3093 190 
Q 2681 -91 1863 -91 
Q 1516 -91 1145 -36 
Q 775 19 384 128 
L 384 978 
Q 719 816 1070 734 
Q 1422 653 1784 653 
Q 2113 653 2278 743 
Q 2444 834 2444 1013 
Q 2444 1163 2330 1236 
Q 2216 1309 1875 1350 
L 1678 1375 
Q 931 1469 631 1722 
Q 331 1975 331 2491 
Q 331 3047 712 3315 
Q 1094 3584 1881 3584 
Q 2191 3584 2531 3537 
Q 2872 3491 3272 3391 
z
" transform="scale(0.015625)"/>
       <path id="DejaVuSans-Bold-43" d="M 4288 256 
Q 3956 84 3597 -3 
Q 3238 -91 2847 -91 
Q 1681 -91 1000 561 
Q 319 1213 319 2328 
Q 319 3447 1000 4098 
Q 1681 4750 2847 4750 
Q 3238 4750 3597 4662 
Q 3956 4575 4288 4403 
L 4288 3438 
Q 3953 3666 3628 3772 
Q 3303 3878 2944 3878 
Q 2300 3878 1931 3465 
Q 1563 3053 1563 2328 
Q 1563 1606 1931 1193 
Q 2300 781 2944 781 
Q 3303 781 3628 887 
Q 3953 994 4288 1222 
L 4288 256 
z
" transform="scale(0.015625)"/>
       <path id="DejaVuSans-Bold-64" d="M 2919 2988 
L 2919 4863 
L 4044 4863 
L 4044 0 
L 2919 0 
L 2919 506 
Q 2688 197 2409 53 
Q 2131 -91 1766 -91 
Q 1119 -91 703 423 
Q 288 938 288 1747 
Q 288 2556 703 3070 
Q 1119 3584 1766 3584 
Q 2128 3584 2408 3439 
Q 2688 3294 2919 2988 
z
M 2181 722 
Q 2541 722 2730 984 
Q 2919 1247 2919 1747 
Q 2919 2247 2730 2509 
Q 2541 2772 2181 2772 
Q 1825 2772 1636 2509 
Q 1447 2247 1447 1747 
Q 1447 1247 1636 984 
Q 1825 722 2181 722 
z
" transform="scale(0.015625)"/>
      </defs>
      <use xlink:href="#DejaVuSans-Bold-4e"/>
      <use xlink:href="#DejaVuSans-Bold-75" transform="translate(83.691406 0)"/>
      <use xlink:href="#DejaVuSans-Bold-6d" transform="translate(154.882812 0)"/>
      <use xlink:href="#DejaVuSans-Bold-62" transform="translate(259.082031 0)"/>
      <use xlink:href="#DejaVuSans-Bold-65" transform="translate(330.664062 0)"/>
      <use xlink:href="#DejaVuSans-Bold-72" transform="translate(398.486328 0)"/>
      <use xlink:href="#DejaVuSans-Bold-20" transform="translate(447.802734 0)"/>
      <use xlink:href="#DejaVuSans-Bold-6f" transform="translate(482.617188 0)"/>
      <use xlink:href="#DejaVuSans-Bold-66" transform="translate(551.318359 0)"/>
      <use xlink:href="#DejaVuSans-Bold-20" transform="translate(594.824219 0)"/>
      <use xlink:href="#DejaVuSans-Bold-55" transform="translate(629.638672 0)"/>
      <use xlink:href="#DejaVuSans-Bold-6e" transform="translate(710.839844 0)"/>
      <use xlink:href="#DejaVuSans-Bold-69" transform="translate(782.03125 0)"/>
      <use xlink:href="#DejaVuSans-Bold-71" transform="translate(816.308594 0)"/>
      <use xlink:href="#DejaVuSans-Bold-75" transform="translate(887.890625 0)"/>
      <use xlink:href="#DejaVuSans-Bold-65" transform="translate(959.082031 0)"/>
      <use xlink:href="#DejaVuSans-Bold-20" transform="translate(1026.904297 0)"/>
      <use xlink:href="#DejaVuSans-Bold-41" transform="translate(1061.71875 0)"/>
      <use xlink:href="#DejaVuSans-Bold-72" transform="translate(1139.111328 0)"/>
      <use xlink:href="#DejaVuSans-Bold-74" transform="translate(1188.427734 0)"/>
      <use xlink:href="#DejaVuSans-Bold-69" transform="translate(1236.230469 0)"/>
      <use xlink:href="#DejaVuSans-Bold-73" transform="translate(1270.507812 0)"/>
      <use xlink:href="#DejaVuSans-Bold-74" transform="translate(1330.029297 0)"/>
      <use xlink:href="#DejaVuSans-Bold-73" transform="translate(1377.832031 0)"/>
      <use xlink:href="#DejaVuSans-Bold-20" transform="translate(1437.353516 0)"/>
      <use xlink:href="#DejaVuSans-Bold-43" transform="translate(1472.167969 0)"/>
      <use xlink:href="#DejaVuSans-Bold-69" transform="translate(1545.556641 0)"/>
      <use xlink:href="#DejaVuSans-Bold-74" transform="translate(1579.833984 0)"/>
      <use xlink:href="#DejaVuSans-Bold-65" transform="translate(1627.636719 0)"/>
      <use xlink:href="#DejaVuSans-Bold-64" transform="translate(1695.458984 0)"/>
     </g>
    </g>
   </g>
   <g id="matplotlib.axis_2">
    <g id="ytick_1">
     <g id="line2d_10">
      <defs>
       <path id="m39b41a87ce" d="M 0 0 
L -3.5 0 
" style="stroke: #000000; stroke-width: 0.8"/>
      </defs>
      <g>
       <use xlink:href="#m39b41a87ce" x="98.62" y="505.438687" style="stroke: #000000; stroke-width: 0.8"/>
      </g>
     </g>
     <g id="text_11">
      <!-- Vulture -->
      <g transform="translate(56.041875 509.237906) scale(0.1 -0.1)">
       <defs>
        <path id="DejaVuSans-56" d="M 1831 0 
L 50 4666 
L 709 4666 
L 2188 738 
L 3669 4666 
L 4325 4666 
L 2547 0 
L 1831 0 
z
" transform="scale(0.015625)"/>
        <path id="DejaVuSans-75" d="M 544 1381 
L 544 3500 
L 1119 3500 
L 1119 1403 
Q 1119 906 1312 657 
Q 1506 409 1894 409 
Q 2359 409 2629 706 
Q 2900 1003 2900 1516 
L 2900 3500 
L 3475 3500 
L 3475 0 
L 2900 0 
L 2900 538 
Q 2691 219 2414 64 
Q 2138 -91 1772 -91 
Q 1169 -91 856 284 
Q 544 659 544 1381 
z
M 1991 3584 
L 1991 3584 
z
" transform="scale(0.015625)"/>
        <path id="DejaVuSans-6c" d="M 603 4863 
L 1178 4863 
L 1178 0 
L 603 0 
L 603 4863 
z
" transform="scale(0.015625)"/>
        <path id="DejaVuSans-74" d="M 1172 4494 
L 1172 3500 
L 2356 3500 
L 2356 3053 
L 1172 3053 
L 1172 1153 
Q 1172 725 1289 603 
Q 1406 481 1766 481 
L 2356 481 
L 2356 0 
L 1766 0 
Q 1100 0 847 248 
Q 594 497 594 1153 
L 594 3053 
L 172 3053 
L 172 3500 
L 594 3500 
L 594 4494 
L 1172 4494 
z
" transform="scale(0.015625)"/>
        <path id="DejaVuSans-72" d="M 2631 2963 
Q 2534 3019 2420 3045 
Q 2306 3072 2169 3072 
Q 1681 3072 1420 2755 
Q 1159 2438 1159 1844 
L 1159 0 
L 581 0 
L 581 3500 
L 1159 3500 
L 1159 2956 
Q 1341 3275 1631 3429 
Q 1922 3584 2338 3584 
Q 2397 3584 2469 3576 
Q 2541 3569 2628 3553 
L 2631 2963 
z
" transform="scale(0.015625)"/>
        <path id="DejaVuSans-65" d="M 3597 1894 
L 3597 1613 
L 953 1613 
Q 991 1019 1311 708 
Q 1631 397 2203 397 
Q 2534 397 2845 478 
Q 3156 559 3463 722 
L 3463 178 
Q 3153 47 2828 -22 
Q 2503 -91 2169 -91 
Q 1331 -91 842 396 
Q 353 884 353 1716 
Q 353 2575 817 3079 
Q 1281 3584 2069 3584 
Q 2775 3584 3186 3129 
Q 3597 2675 3597 1894 
z
M 3022 2063 
Q 3016 2534 2758 2815 
Q 2500 3097 2075 3097 
Q 1594 3097 1305 2825 
Q 1016 2553 972 2059 
L 3022 2063 
z
" transform="scale(0.015625)"/>
       </defs>
       <use xlink:href="#DejaVuSans-56"/>
       <use xlink:href="#DejaVuSans-75" transform="translate(61.658203 0)"/>
       <use xlink:href="#DejaVuSans-6c" transform="translate(125.037109 0)"/>
       <use xlink:href="#DejaVuSans-74" transform="translate(152.820312 0)"/>
       <use xlink:href="#DejaVuSans-75" transform="translate(192.029297 0)"/>
       <use xlink:href="#DejaVuSans-72" transform="translate(255.408203 0)"/>
       <use xlink:href="#DejaVuSans-65" transform="translate(294.271484 0)"/>
      </g>
     </g>
    </g>
    <g id="ytick_2">
     <g id="line2d_11">
      <g>
       <use xlink:href="#m39b41a87ce" x="98.62" y="489.894495" style="stroke: #000000; stroke-width: 0.8"/>
      </g>
     </g>
     <g id="text_12">
      <!-- Indep -->
      <g transform="translate(63.4825 493.693714) scale(0.1 -0.1)">
       <defs>
        <path id="DejaVuSans-49" d="M 628 4666 
L 1259 4666 
L 1259 0 
L 628 0 
L 628 4666 
z
" transform="scale(0.015625)"/>
        <path id="DejaVuSans-6e" d="M 3513 2113 
L 3513 0 
L 2938 0 
L 2938 2094 
Q 2938 2591 2744 2837 
Q 2550 3084 2163 3084 
Q 1697 3084 1428 2787 
Q 1159 2491 1159 1978 
L 1159 0 
L 581 0 
L 581 3500 
L 1159 3500 
L 1159 2956 
Q 1366 3272 1645 3428 
Q 1925 3584 2291 3584 
Q 2894 3584 3203 3211 
Q 3513 2838 3513 2113 
z
" transform="scale(0.015625)"/>
        <path id="DejaVuSans-64" d="M 2906 2969 
L 2906 4863 
L 3481 4863 
L 3481 0 
L 2906 0 
L 2906 525 
Q 2725 213 2448 61 
Q 2172 -91 1784 -91 
Q 1150 -91 751 415 
Q 353 922 353 1747 
Q 353 2572 751 3078 
Q 1150 3584 1784 3584 
Q 2172 3584 2448 3432 
Q 2725 3281 2906 2969 
z
M 947 1747 
Q 947 1113 1208 752 
Q 1469 391 1925 391 
Q 2381 391 2643 752 
Q 2906 1113 2906 1747 
Q 2906 2381 2643 2742 
Q 2381 3103 1925 3103 
Q 1469 3103 1208 2742 
Q 947 2381 947 1747 
z
" transform="scale(0.015625)"/>
        <path id="DejaVuSans-70" d="M 1159 525 
L 1159 -1331 
L 581 -1331 
L 581 3500 
L 1159 3500 
L 1159 2969 
Q 1341 3281 1617 3432 
Q 1894 3584 2278 3584 
Q 2916 3584 3314 3078 
Q 3713 2572 3713 1747 
Q 3713 922 3314 415 
Q 2916 -91 2278 -91 
Q 1894 -91 1617 61 
Q 1341 213 1159 525 
z
M 3116 1747 
Q 3116 2381 2855 2742 
Q 2594 3103 2138 3103 
Q 1681 3103 1420 2742 
Q 1159 2381 1159 1747 
Q 1159 1113 1420 752 
Q 1681 391 2138 391 
Q 2594 391 2855 752 
Q 3116 1113 3116 1747 
z
" transform="scale(0.015625)"/>
       </defs>
       <use xlink:href="#DejaVuSans-49"/>
       <use xlink:href="#DejaVuSans-6e" transform="translate(29.492188 0)"/>
       <use xlink:href="#DejaVuSans-64" transform="translate(92.871094 0)"/>
       <use xlink:href="#DejaVuSans-65" transform="translate(156.347656 0)"/>
       <use xlink:href="#DejaVuSans-70" transform="translate(217.871094 0)"/>
      </g>
     </g>
    </g>
    <g id="ytick_3">
     <g id="line2d_12">
      <g>
       <use xlink:href="#m39b41a87ce" x="98.62" y="474.350303" style="stroke: #000000; stroke-width: 0.8"/>
      </g>
     </g>
     <g id="text_13">
      <!-- Ew -->
      <g transform="translate(77.123125 478.149522) scale(0.1 -0.1)">
       <defs>
        <path id="DejaVuSans-45" d="M 628 4666 
L 3578 4666 
L 3578 4134 
L 1259 4134 
L 1259 2753 
L 3481 2753 
L 3481 2222 
L 1259 2222 
L 1259 531 
L 3634 531 
L 3634 0 
L 628 0 
L 628 4666 
z
" transform="scale(0.015625)"/>
        <path id="DejaVuSans-77" d="M 269 3500 
L 844 3500 
L 1563 769 
L 2278 3500 
L 2956 3500 
L 3675 769 
L 4391 3500 
L 4966 3500 
L 4050 0 
L 3372 0 
L 2619 2869 
L 1863 0 
L 1184 0 
L 269 3500 
z
" transform="scale(0.015625)"/>
       </defs>
       <use xlink:href="#DejaVuSans-45"/>
       <use xlink:href="#DejaVuSans-77" transform="translate(63.183594 0)"/>
      </g>
     </g>
    </g>
    <g id="ytick_4">
     <g id="line2d_13">
      <g>
       <use xlink:href="#m39b41a87ce" x="98.62" y="458.806111" style="stroke: #000000; stroke-width: 0.8"/>
      </g>
     </g>
     <g id="text_14">
      <!-- Usatoday -->
      <g transform="translate(44.529375 462.60533) scale(0.1 -0.1)">
       <defs>
        <path id="DejaVuSans-55" d="M 556 4666 
L 1191 4666 
L 1191 1831 
Q 1191 1081 1462 751 
Q 1734 422 2344 422 
Q 2950 422 3222 751 
Q 3494 1081 3494 1831 
L 3494 4666 
L 4128 4666 
L 4128 1753 
Q 4128 841 3676 375 
Q 3225 -91 2344 -91 
Q 1459 -91 1007 375 
Q 556 841 556 1753 
L 556 4666 
z
" transform="scale(0.015625)"/>
        <path id="DejaVuSans-73" d="M 2834 3397 
L 2834 2853 
Q 2591 2978 2328 3040 
Q 2066 3103 1784 3103 
Q 1356 3103 1142 2972 
Q 928 2841 928 2578 
Q 928 2378 1081 2264 
Q 1234 2150 1697 2047 
L 1894 2003 
Q 2506 1872 2764 1633 
Q 3022 1394 3022 966 
Q 3022 478 2636 193 
Q 2250 -91 1575 -91 
Q 1294 -91 989 -36 
Q 684 19 347 128 
L 347 722 
Q 666 556 975 473 
Q 1284 391 1588 391 
Q 1994 391 2212 530 
Q 2431 669 2431 922 
Q 2431 1156 2273 1281 
Q 2116 1406 1581 1522 
L 1381 1569 
Q 847 1681 609 1914 
Q 372 2147 372 2553 
Q 372 3047 722 3315 
Q 1072 3584 1716 3584 
Q 2034 3584 2315 3537 
Q 2597 3491 2834 3397 
z
" transform="scale(0.015625)"/>
        <path id="DejaVuSans-61" d="M 2194 1759 
Q 1497 1759 1228 1600 
Q 959 1441 959 1056 
Q 959 750 1161 570 
Q 1363 391 1709 391 
Q 2188 391 2477 730 
Q 2766 1069 2766 1631 
L 2766 1759 
L 2194 1759 
z
M 3341 1997 
L 3341 0 
L 2766 0 
L 2766 531 
Q 2569 213 2275 61 
Q 1981 -91 1556 -91 
Q 1019 -91 701 211 
Q 384 513 384 1019 
Q 384 1609 779 1909 
Q 1175 2209 1959 2209 
L 2766 2209 
L 2766 2266 
Q 2766 2663 2505 2880 
Q 2244 3097 1772 3097 
Q 1472 3097 1187 3025 
Q 903 2953 641 2809 
L 641 3341 
Q 956 3463 1253 3523 
Q 1550 3584 1831 3584 
Q 2591 3584 2966 3190 
Q 3341 2797 3341 1997 
z
" transform="scale(0.015625)"/>
        <path id="DejaVuSans-6f" d="M 1959 3097 
Q 1497 3097 1228 2736 
Q 959 2375 959 1747 
Q 959 1119 1226 758 
Q 1494 397 1959 397 
Q 2419 397 2687 759 
Q 2956 1122 2956 1747 
Q 2956 2369 2687 2733 
Q 2419 3097 1959 3097 
z
M 1959 3584 
Q 2709 3584 3137 3096 
Q 3566 2609 3566 1747 
Q 3566 888 3137 398 
Q 2709 -91 1959 -91 
Q 1206 -91 779 398 
Q 353 888 353 1747 
Q 353 2609 779 3096 
Q 1206 3584 1959 3584 
z
" transform="scale(0.015625)"/>
        <path id="DejaVuSans-79" d="M 2059 -325 
Q 1816 -950 1584 -1140 
Q 1353 -1331 966 -1331 
L 506 -1331 
L 506 -850 
L 844 -850 
Q 1081 -850 1212 -737 
Q 1344 -625 1503 -206 
L 1606 56 
L 191 3500 
L 800 3500 
L 1894 763 
L 2988 3500 
L 3597 3500 
L 2059 -325 
z
" transform="scale(0.015625)"/>
       </defs>
       <use xlink:href="#DejaVuSans-55"/>
       <use xlink:href="#DejaVuSans-73" transform="translate(73.193359 0)"/>
       <use xlink:href="#DejaVuSans-61" transform="translate(125.292969 0)"/>
       <use xlink:href="#DejaVuSans-74" transform="translate(186.572266 0)"/>
       <use xlink:href="#DejaVuSans-6f" transform="translate(225.78125 0)"/>
       <use xlink:href="#DejaVuSans-64" transform="translate(286.962891 0)"/>
       <use xlink:href="#DejaVuSans-61" transform="translate(350.439453 0)"/>
       <use xlink:href="#DejaVuSans-79" transform="translate(411.71875 0)"/>
      </g>
     </g>
    </g>
    <g id="ytick_5">
     <g id="line2d_14">
      <g>
       <use xlink:href="#m39b41a87ce" x="98.62" y="443.261919" style="stroke: #000000; stroke-width: 0.8"/>
      </g>
     </g>
     <g id="text_15">
      <!-- Ap -->
      <g transform="translate(78.430938 447.061138) scale(0.1 -0.1)">
       <defs>
        <path id="DejaVuSans-41" d="M 2188 4044 
L 1331 1722 
L 3047 1722 
L 2188 4044 
z
M 1831 4666 
L 2547 4666 
L 4325 0 
L 3669 0 
L 3244 1197 
L 1141 1197 
L 716 0 
L 50 0 
L 1831 4666 
z
" transform="scale(0.015625)"/>
       </defs>
       <use xlink:href="#DejaVuSans-41"/>
       <use xlink:href="#DejaVuSans-70" transform="translate(68.408203 0)"/>
      </g>
     </g>
    </g>
    <g id="ytick_6">
     <g id="line2d_15">
      <g>
       <use xlink:href="#m39b41a87ce" x="98.62" y="427.717727" style="stroke: #000000; stroke-width: 0.8"/>
      </g>
     </g>
     <g id="text_16">
      <!-- Guardian -->
      <g transform="translate(45.877813 431.516946) scale(0.1 -0.1)">
       <defs>
        <path id="DejaVuSans-47" d="M 3809 666 
L 3809 1919 
L 2778 1919 
L 2778 2438 
L 4434 2438 
L 4434 434 
Q 4069 175 3628 42 
Q 3188 -91 2688 -91 
Q 1594 -91 976 548 
Q 359 1188 359 2328 
Q 359 3472 976 4111 
Q 1594 4750 2688 4750 
Q 3144 4750 3555 4637 
Q 3966 4525 4313 4306 
L 4313 3634 
Q 3963 3931 3569 4081 
Q 3175 4231 2741 4231 
Q 1884 4231 1454 3753 
Q 1025 3275 1025 2328 
Q 1025 1384 1454 906 
Q 1884 428 2741 428 
Q 3075 428 3337 486 
Q 3600 544 3809 666 
z
" transform="scale(0.015625)"/>
        <path id="DejaVuSans-69" d="M 603 3500 
L 1178 3500 
L 1178 0 
L 603 0 
L 603 3500 
z
M 603 4863 
L 1178 4863 
L 1178 4134 
L 603 4134 
L 603 4863 
z
" transform="scale(0.015625)"/>
       </defs>
       <use xlink:href="#DejaVuSans-47"/>
       <use xlink:href="#DejaVuSans-75" transform="translate(77.490234 0)"/>
       <use xlink:href="#DejaVuSans-61" transform="translate(140.869141 0)"/>
       <use xlink:href="#DejaVuSans-72" transform="translate(202.148438 0)"/>
       <use xlink:href="#DejaVuSans-64" transform="translate(241.511719 0)"/>
       <use xlink:href="#DejaVuSans-69" transform="translate(304.988281 0)"/>
       <use xlink:href="#DejaVuSans-61" transform="translate(332.771484 0)"/>
       <use xlink:href="#DejaVuSans-6e" transform="translate(394.050781 0)"/>
      </g>
     </g>
    </g>
    <g id="ytick_7">
     <g id="line2d_16">
      <g>
       <use xlink:href="#m39b41a87ce" x="98.62" y="412.173535" style="stroke: #000000; stroke-width: 0.8"/>
      </g>
     </g>
     <g id="text_17">
      <!-- Dazed -->
      <g transform="translate(60.041875 415.972754) scale(0.1 -0.1)">
       <defs>
        <path id="DejaVuSans-44" d="M 1259 4147 
L 1259 519 
L 2022 519 
Q 2988 519 3436 956 
Q 3884 1394 3884 2338 
Q 3884 3275 3436 3711 
Q 2988 4147 2022 4147 
L 1259 4147 
z
M 628 4666 
L 1925 4666 
Q 3281 4666 3915 4102 
Q 4550 3538 4550 2338 
Q 4550 1131 3912 565 
Q 3275 0 1925 0 
L 628 0 
L 628 4666 
z
" transform="scale(0.015625)"/>
        <path id="DejaVuSans-7a" d="M 353 3500 
L 3084 3500 
L 3084 2975 
L 922 459 
L 3084 459 
L 3084 0 
L 275 0 
L 275 525 
L 2438 3041 
L 353 3041 
L 353 3500 
z
" transform="scale(0.015625)"/>
       </defs>
       <use xlink:href="#DejaVuSans-44"/>
       <use xlink:href="#DejaVuSans-61" transform="translate(77.001953 0)"/>
       <use xlink:href="#DejaVuSans-7a" transform="translate(138.28125 0)"/>
       <use xlink:href="#DejaVuSans-65" transform="translate(190.771484 0)"/>
       <use xlink:href="#DejaVuSans-64" transform="translate(252.294922 0)"/>
      </g>
     </g>
    </g>
    <g id="ytick_8">
     <g id="line2d_17">
      <g>
       <use xlink:href="#m39b41a87ce" x="98.62" y="396.629343" style="stroke: #000000; stroke-width: 0.8"/>
      </g>
     </g>
     <g id="text_18">
      <!-- Nyt Zoladz -->
      <g transform="translate(37.649688 400.428562) scale(0.1 -0.1)">
       <defs>
        <path id="DejaVuSans-4e" d="M 628 4666 
L 1478 4666 
L 3547 763 
L 3547 4666 
L 4159 4666 
L 4159 0 
L 3309 0 
L 1241 3903 
L 1241 0 
L 628 0 
L 628 4666 
z
" transform="scale(0.015625)"/>
        <path id="DejaVuSans-20" transform="scale(0.015625)"/>
        <path id="DejaVuSans-5a" d="M 359 4666 
L 4025 4666 
L 4025 4184 
L 1075 531 
L 4097 531 
L 4097 0 
L 288 0 
L 288 481 
L 3238 4134 
L 359 4134 
L 359 4666 
z
" transform="scale(0.015625)"/>
       </defs>
       <use xlink:href="#DejaVuSans-4e"/>
       <use xlink:href="#DejaVuSans-79" transform="translate(74.804688 0)"/>
       <use xlink:href="#DejaVuSans-74" transform="translate(133.984375 0)"/>
       <use xlink:href="#DejaVuSans-20" transform="translate(173.193359 0)"/>
       <use xlink:href="#DejaVuSans-5a" transform="translate(204.980469 0)"/>
       <use xlink:href="#DejaVuSans-6f" transform="translate(273.486328 0)"/>
       <use xlink:href="#DejaVuSans-6c" transform="translate(334.667969 0)"/>
       <use xlink:href="#DejaVuSans-61" transform="translate(362.451172 0)"/>
       <use xlink:href="#DejaVuSans-64" transform="translate(423.730469 0)"/>
       <use xlink:href="#DejaVuSans-7a" transform="translate(487.207031 0)"/>
      </g>
     </g>
    </g>
    <g id="ytick_9">
     <g id="line2d_18">
      <g>
       <use xlink:href="#m39b41a87ce" x="98.62" y="381.085152" style="stroke: #000000; stroke-width: 0.8"/>
      </g>
     </g>
     <g id="text_19">
      <!-- Nyt Caramanica -->
      <g transform="translate(11.160625 384.88437) scale(0.1 -0.1)">
       <defs>
        <path id="DejaVuSans-43" d="M 4122 4306 
L 4122 3641 
Q 3803 3938 3442 4084 
Q 3081 4231 2675 4231 
Q 1875 4231 1450 3742 
Q 1025 3253 1025 2328 
Q 1025 1406 1450 917 
Q 1875 428 2675 428 
Q 3081 428 3442 575 
Q 3803 722 4122 1019 
L 4122 359 
Q 3791 134 3420 21 
Q 3050 -91 2638 -91 
Q 1578 -91 968 557 
Q 359 1206 359 2328 
Q 359 3453 968 4101 
Q 1578 4750 2638 4750 
Q 3056 4750 3426 4639 
Q 3797 4528 4122 4306 
z
" transform="scale(0.015625)"/>
        <path id="DejaVuSans-6d" d="M 3328 2828 
Q 3544 3216 3844 3400 
Q 4144 3584 4550 3584 
Q 5097 3584 5394 3201 
Q 5691 2819 5691 2113 
L 5691 0 
L 5113 0 
L 5113 2094 
Q 5113 2597 4934 2840 
Q 4756 3084 4391 3084 
Q 3944 3084 3684 2787 
Q 3425 2491 3425 1978 
L 3425 0 
L 2847 0 
L 2847 2094 
Q 2847 2600 2669 2842 
Q 2491 3084 2119 3084 
Q 1678 3084 1418 2786 
Q 1159 2488 1159 1978 
L 1159 0 
L 581 0 
L 581 3500 
L 1159 3500 
L 1159 2956 
Q 1356 3278 1631 3431 
Q 1906 3584 2284 3584 
Q 2666 3584 2933 3390 
Q 3200 3197 3328 2828 
z
" transform="scale(0.015625)"/>
        <path id="DejaVuSans-63" d="M 3122 3366 
L 3122 2828 
Q 2878 2963 2633 3030 
Q 2388 3097 2138 3097 
Q 1578 3097 1268 2742 
Q 959 2388 959 1747 
Q 959 1106 1268 751 
Q 1578 397 2138 397 
Q 2388 397 2633 464 
Q 2878 531 3122 666 
L 3122 134 
Q 2881 22 2623 -34 
Q 2366 -91 2075 -91 
Q 1284 -91 818 406 
Q 353 903 353 1747 
Q 353 2603 823 3093 
Q 1294 3584 2113 3584 
Q 2378 3584 2631 3529 
Q 2884 3475 3122 3366 
z
" transform="scale(0.015625)"/>
       </defs>
       <use xlink:href="#DejaVuSans-4e"/>
       <use xlink:href="#DejaVuSans-79" transform="translate(74.804688 0)"/>
       <use xlink:href="#DejaVuSans-74" transform="translate(133.984375 0)"/>
       <use xlink:href="#DejaVuSans-20" transform="translate(173.193359 0)"/>
       <use xlink:href="#DejaVuSans-43" transform="translate(204.980469 0)"/>
       <use xlink:href="#DejaVuSans-61" transform="translate(274.804688 0)"/>
       <use xlink:href="#DejaVuSans-72" transform="translate(336.083984 0)"/>
       <use xlink:href="#DejaVuSans-61" transform="translate(377.197266 0)"/>
       <use xlink:href="#DejaVuSans-6d" transform="translate(438.476562 0)"/>
       <use xlink:href="#DejaVuSans-61" transform="translate(535.888672 0)"/>
       <use xlink:href="#DejaVuSans-6e" transform="translate(597.167969 0)"/>
       <use xlink:href="#DejaVuSans-69" transform="translate(660.546875 0)"/>
       <use xlink:href="#DejaVuSans-63" transform="translate(688.330078 0)"/>
       <use xlink:href="#DejaVuSans-61" transform="translate(743.310547 0)"/>
      </g>
     </g>
    </g>
    <g id="ytick_10">
     <g id="line2d_19">
      <g>
       <use xlink:href="#m39b41a87ce" x="98.62" y="365.54096" style="stroke: #000000; stroke-width: 0.8"/>
      </g>
     </g>
     <g id="text_20">
      <!-- Crack -->
      <g transform="translate(63.109063 369.340178) scale(0.1 -0.1)">
       <defs>
        <path id="DejaVuSans-6b" d="M 581 4863 
L 1159 4863 
L 1159 1991 
L 2875 3500 
L 3609 3500 
L 1753 1863 
L 3688 0 
L 2938 0 
L 1159 1709 
L 1159 0 
L 581 0 
L 581 4863 
z
" transform="scale(0.015625)"/>
       </defs>
       <use xlink:href="#DejaVuSans-43"/>
       <use xlink:href="#DejaVuSans-72" transform="translate(69.824219 0)"/>
       <use xlink:href="#DejaVuSans-61" transform="translate(110.9375 0)"/>
       <use xlink:href="#DejaVuSans-63" transform="translate(172.216797 0)"/>
       <use xlink:href="#DejaVuSans-6b" transform="translate(227.197266 0)"/>
      </g>
     </g>
    </g>
    <g id="ytick_11">
     <g id="line2d_20">
      <g>
       <use xlink:href="#m39b41a87ce" x="98.62" y="349.996768" style="stroke: #000000; stroke-width: 0.8"/>
      </g>
     </g>
     <g id="text_21">
      <!-- Buzzfeed -->
      <g transform="translate(45.749688 353.795986) scale(0.1 -0.1)">
       <defs>
        <path id="DejaVuSans-42" d="M 1259 2228 
L 1259 519 
L 2272 519 
Q 2781 519 3026 730 
Q 3272 941 3272 1375 
Q 3272 1813 3026 2020 
Q 2781 2228 2272 2228 
L 1259 2228 
z
M 1259 4147 
L 1259 2741 
L 2194 2741 
Q 2656 2741 2882 2914 
Q 3109 3088 3109 3444 
Q 3109 3797 2882 3972 
Q 2656 4147 2194 4147 
L 1259 4147 
z
M 628 4666 
L 2241 4666 
Q 2963 4666 3353 4366 
Q 3744 4066 3744 3513 
Q 3744 3084 3544 2831 
Q 3344 2578 2956 2516 
Q 3422 2416 3680 2098 
Q 3938 1781 3938 1306 
Q 3938 681 3513 340 
Q 3088 0 2303 0 
L 628 0 
L 628 4666 
z
" transform="scale(0.015625)"/>
        <path id="DejaVuSans-66" d="M 2375 4863 
L 2375 4384 
L 1825 4384 
Q 1516 4384 1395 4259 
Q 1275 4134 1275 3809 
L 1275 3500 
L 2222 3500 
L 2222 3053 
L 1275 3053 
L 1275 0 
L 697 0 
L 697 3053 
L 147 3053 
L 147 3500 
L 697 3500 
L 697 3744 
Q 697 4328 969 4595 
Q 1241 4863 1831 4863 
L 2375 4863 
z
" transform="scale(0.015625)"/>
       </defs>
       <use xlink:href="#DejaVuSans-42"/>
       <use xlink:href="#DejaVuSans-75" transform="translate(68.603516 0)"/>
       <use xlink:href="#DejaVuSans-7a" transform="translate(131.982422 0)"/>
       <use xlink:href="#DejaVuSans-7a" transform="translate(184.472656 0)"/>
       <use xlink:href="#DejaVuSans-66" transform="translate(236.962891 0)"/>
       <use xlink:href="#DejaVuSans-65" transform="translate(272.167969 0)"/>
       <use xlink:href="#DejaVuSans-65" transform="translate(333.691406 0)"/>
       <use xlink:href="#DejaVuSans-64" transform="translate(395.214844 0)"/>
      </g>
     </g>
    </g>
    <g id="ytick_12">
     <g id="line2d_21">
      <g>
       <use xlink:href="#m39b41a87ce" x="98.62" y="334.452576" style="stroke: #000000; stroke-width: 0.8"/>
      </g>
     </g>
     <g id="text_22">
      <!-- Npr25 -->
      <g transform="translate(60.954375 338.251795) scale(0.1 -0.1)">
       <use xlink:href="#DejaVuSans-4e"/>
       <use xlink:href="#DejaVuSans-70" transform="translate(74.804688 0)"/>
       <use xlink:href="#DejaVuSans-72" transform="translate(138.28125 0)"/>
       <use xlink:href="#DejaVuSans-32" transform="translate(179.394531 0)"/>
       <use xlink:href="#DejaVuSans-35" transform="translate(243.017578 0)"/>
      </g>
     </g>
    </g>
    <g id="ytick_13">
     <g id="line2d_22">
      <g>
       <use xlink:href="#m39b41a87ce" x="98.62" y="318.908384" style="stroke: #000000; stroke-width: 0.8"/>
      </g>
     </g>
     <g id="text_23">
      <!-- Latimes -->
      <g transform="translate(52.118438 322.707603) scale(0.1 -0.1)">
       <defs>
        <path id="DejaVuSans-4c" d="M 628 4666 
L 1259 4666 
L 1259 531 
L 3531 531 
L 3531 0 
L 628 0 
L 628 4666 
z
" transform="scale(0.015625)"/>
       </defs>
       <use xlink:href="#DejaVuSans-4c"/>
       <use xlink:href="#DejaVuSans-61" transform="translate(55.712891 0)"/>
       <use xlink:href="#DejaVuSans-74" transform="translate(116.992188 0)"/>
       <use xlink:href="#DejaVuSans-69" transform="translate(156.201172 0)"/>
       <use xlink:href="#DejaVuSans-6d" transform="translate(183.984375 0)"/>
       <use xlink:href="#DejaVuSans-65" transform="translate(281.396484 0)"/>
       <use xlink:href="#DejaVuSans-73" transform="translate(342.919922 0)"/>
      </g>
     </g>
    </g>
    <g id="ytick_14">
     <g id="line2d_23">
      <g>
       <use xlink:href="#m39b41a87ce" x="98.62" y="303.364192" style="stroke: #000000; stroke-width: 0.8"/>
      </g>
     </g>
     <g id="text_24">
      <!-- Gvsb -->
      <g transform="translate(66.395 307.163411) scale(0.1 -0.1)">
       <defs>
        <path id="DejaVuSans-76" d="M 191 3500 
L 800 3500 
L 1894 563 
L 2988 3500 
L 3597 3500 
L 2284 0 
L 1503 0 
L 191 3500 
z
" transform="scale(0.015625)"/>
        <path id="DejaVuSans-62" d="M 3116 1747 
Q 3116 2381 2855 2742 
Q 2594 3103 2138 3103 
Q 1681 3103 1420 2742 
Q 1159 2381 1159 1747 
Q 1159 1113 1420 752 
Q 1681 391 2138 391 
Q 2594 391 2855 752 
Q 3116 1113 3116 1747 
z
M 1159 2969 
Q 1341 3281 1617 3432 
Q 1894 3584 2278 3584 
Q 2916 3584 3314 3078 
Q 3713 2572 3713 1747 
Q 3713 922 3314 415 
Q 2916 -91 2278 -91 
Q 1894 -91 1617 61 
Q 1341 213 1159 525 
L 1159 0 
L 581 0 
L 581 4863 
L 1159 4863 
L 1159 2969 
z
" transform="scale(0.015625)"/>
       </defs>
       <use xlink:href="#DejaVuSans-47"/>
       <use xlink:href="#DejaVuSans-76" transform="translate(77.490234 0)"/>
       <use xlink:href="#DejaVuSans-73" transform="translate(136.669922 0)"/>
       <use xlink:href="#DejaVuSans-62" transform="translate(188.769531 0)"/>
      </g>
     </g>
    </g>
    <g id="ytick_15">
     <g id="line2d_24">
      <g>
       <use xlink:href="#m39b41a87ce" x="98.62" y="287.82" style="stroke: #000000; stroke-width: 0.8"/>
      </g>
     </g>
     <g id="text_25">
      <!-- Slant -->
      <g transform="translate(66.1075 291.619219) scale(0.1 -0.1)">
       <defs>
        <path id="DejaVuSans-53" d="M 3425 4513 
L 3425 3897 
Q 3066 4069 2747 4153 
Q 2428 4238 2131 4238 
Q 1616 4238 1336 4038 
Q 1056 3838 1056 3469 
Q 1056 3159 1242 3001 
Q 1428 2844 1947 2747 
L 2328 2669 
Q 3034 2534 3370 2195 
Q 3706 1856 3706 1288 
Q 3706 609 3251 259 
Q 2797 -91 1919 -91 
Q 1588 -91 1214 -16 
Q 841 59 441 206 
L 441 856 
Q 825 641 1194 531 
Q 1563 422 1919 422 
Q 2459 422 2753 634 
Q 3047 847 3047 1241 
Q 3047 1584 2836 1778 
Q 2625 1972 2144 2069 
L 1759 2144 
Q 1053 2284 737 2584 
Q 422 2884 422 3419 
Q 422 4038 858 4394 
Q 1294 4750 2059 4750 
Q 2388 4750 2728 4690 
Q 3069 4631 3425 4513 
z
" transform="scale(0.015625)"/>
       </defs>
       <use xlink:href="#DejaVuSans-53"/>
       <use xlink:href="#DejaVuSans-6c" transform="translate(63.476562 0)"/>
       <use xlink:href="#DejaVuSans-61" transform="translate(91.259766 0)"/>
       <use xlink:href="#DejaVuSans-6e" transform="translate(152.539062 0)"/>
       <use xlink:href="#DejaVuSans-74" transform="translate(215.917969 0)"/>
      </g>
     </g>
    </g>
    <g id="ytick_16">
     <g id="line2d_25">
      <g>
       <use xlink:href="#m39b41a87ce" x="98.62" y="272.275808" style="stroke: #000000; stroke-width: 0.8"/>
      </g>
     </g>
     <g id="text_26">
      <!-- Elle -->
      <g transform="translate(73.591875 276.075027) scale(0.1 -0.1)">
       <use xlink:href="#DejaVuSans-45"/>
       <use xlink:href="#DejaVuSans-6c" transform="translate(63.183594 0)"/>
       <use xlink:href="#DejaVuSans-6c" transform="translate(90.966797 0)"/>
       <use xlink:href="#DejaVuSans-65" transform="translate(118.75 0)"/>
      </g>
     </g>
    </g>
    <g id="ytick_17">
     <g id="line2d_26">
      <g>
       <use xlink:href="#m39b41a87ce" x="98.62" y="256.731616" style="stroke: #000000; stroke-width: 0.8"/>
      </g>
     </g>
     <g id="text_27">
      <!-- Complex -->
      <g transform="translate(47.754375 260.530835) scale(0.1 -0.1)">
       <defs>
        <path id="DejaVuSans-78" d="M 3513 3500 
L 2247 1797 
L 3578 0 
L 2900 0 
L 1881 1375 
L 863 0 
L 184 0 
L 1544 1831 
L 300 3500 
L 978 3500 
L 1906 2253 
L 2834 3500 
L 3513 3500 
z
" transform="scale(0.015625)"/>
       </defs>
       <use xlink:href="#DejaVuSans-43"/>
       <use xlink:href="#DejaVuSans-6f" transform="translate(69.824219 0)"/>
       <use xlink:href="#DejaVuSans-6d" transform="translate(131.005859 0)"/>
       <use xlink:href="#DejaVuSans-70" transform="translate(228.417969 0)"/>
       <use xlink:href="#DejaVuSans-6c" transform="translate(291.894531 0)"/>
       <use xlink:href="#DejaVuSans-65" transform="translate(319.677734 0)"/>
       <use xlink:href="#DejaVuSans-78" transform="translate(379.451172 0)"/>
      </g>
     </g>
    </g>
    <g id="ytick_18">
     <g id="line2d_27">
      <g>
       <use xlink:href="#m39b41a87ce" x="98.62" y="241.187424" style="stroke: #000000; stroke-width: 0.8"/>
      </g>
     </g>
     <g id="text_28">
      <!-- Quietus -->
      <g transform="translate(53.012188 244.986643) scale(0.1 -0.1)">
       <defs>
        <path id="DejaVuSans-51" d="M 2522 4238 
Q 1834 4238 1429 3725 
Q 1025 3213 1025 2328 
Q 1025 1447 1429 934 
Q 1834 422 2522 422 
Q 3209 422 3611 934 
Q 4013 1447 4013 2328 
Q 4013 3213 3611 3725 
Q 3209 4238 2522 4238 
z
M 3406 84 
L 4238 -825 
L 3475 -825 
L 2784 -78 
Q 2681 -84 2626 -87 
Q 2572 -91 2522 -91 
Q 1538 -91 948 567 
Q 359 1225 359 2328 
Q 359 3434 948 4092 
Q 1538 4750 2522 4750 
Q 3503 4750 4090 4092 
Q 4678 3434 4678 2328 
Q 4678 1516 4351 937 
Q 4025 359 3406 84 
z
" transform="scale(0.015625)"/>
       </defs>
       <use xlink:href="#DejaVuSans-51"/>
       <use xlink:href="#DejaVuSans-75" transform="translate(78.710938 0)"/>
       <use xlink:href="#DejaVuSans-69" transform="translate(142.089844 0)"/>
       <use xlink:href="#DejaVuSans-65" transform="translate(169.873047 0)"/>
       <use xlink:href="#DejaVuSans-74" transform="translate(231.396484 0)"/>
       <use xlink:href="#DejaVuSans-75" transform="translate(270.605469 0)"/>
       <use xlink:href="#DejaVuSans-73" transform="translate(333.984375 0)"/>
      </g>
     </g>
    </g>
    <g id="ytick_19">
     <g id="line2d_28">
      <g>
       <use xlink:href="#m39b41a87ce" x="98.62" y="225.643232" style="stroke: #000000; stroke-width: 0.8"/>
      </g>
     </g>
     <g id="text_29">
      <!-- Stereogum -->
      <g transform="translate(36.61375 229.442451) scale(0.1 -0.1)">
       <defs>
        <path id="DejaVuSans-67" d="M 2906 1791 
Q 2906 2416 2648 2759 
Q 2391 3103 1925 3103 
Q 1463 3103 1205 2759 
Q 947 2416 947 1791 
Q 947 1169 1205 825 
Q 1463 481 1925 481 
Q 2391 481 2648 825 
Q 2906 1169 2906 1791 
z
M 3481 434 
Q 3481 -459 3084 -895 
Q 2688 -1331 1869 -1331 
Q 1566 -1331 1297 -1286 
Q 1028 -1241 775 -1147 
L 775 -588 
Q 1028 -725 1275 -790 
Q 1522 -856 1778 -856 
Q 2344 -856 2625 -561 
Q 2906 -266 2906 331 
L 2906 616 
Q 2728 306 2450 153 
Q 2172 0 1784 0 
Q 1141 0 747 490 
Q 353 981 353 1791 
Q 353 2603 747 3093 
Q 1141 3584 1784 3584 
Q 2172 3584 2450 3431 
Q 2728 3278 2906 2969 
L 2906 3500 
L 3481 3500 
L 3481 434 
z
" transform="scale(0.015625)"/>
       </defs>
       <use xlink:href="#DejaVuSans-53"/>
       <use xlink:href="#DejaVuSans-74" transform="translate(63.476562 0)"/>
       <use xlink:href="#DejaVuSans-65" transform="translate(102.685547 0)"/>
       <use xlink:href="#DejaVuSans-72" transform="translate(164.208984 0)"/>
       <use xlink:href="#DejaVuSans-65" transform="translate(203.072266 0)"/>
       <use xlink:href="#DejaVuSans-6f" transform="translate(264.595703 0)"/>
       <use xlink:href="#DejaVuSans-67" transform="translate(325.777344 0)"/>
       <use xlink:href="#DejaVuSans-75" transform="translate(389.253906 0)"/>
       <use xlink:href="#DejaVuSans-6d" transform="translate(452.632812 0)"/>
      </g>
     </g>
    </g>
    <g id="ytick_20">
     <g id="line2d_29">
      <g>
       <use xlink:href="#m39b41a87ce" x="98.62" y="210.09904" style="stroke: #000000; stroke-width: 0.8"/>
      </g>
     </g>
     <g id="text_30">
      <!-- Nme -->
      <g transform="translate(68.245 213.898259) scale(0.1 -0.1)">
       <use xlink:href="#DejaVuSans-4e"/>
       <use xlink:href="#DejaVuSans-6d" transform="translate(74.804688 0)"/>
       <use xlink:href="#DejaVuSans-65" transform="translate(172.216797 0)"/>
      </g>
     </g>
    </g>
    <g id="ytick_21">
     <g id="line2d_30">
      <g>
       <use xlink:href="#m39b41a87ce" x="98.62" y="194.554848" style="stroke: #000000; stroke-width: 0.8"/>
      </g>
     </g>
     <g id="text_31">
      <!-- Fader -->
      <g transform="translate(64.040313 198.354067) scale(0.1 -0.1)">
       <defs>
        <path id="DejaVuSans-46" d="M 628 4666 
L 3309 4666 
L 3309 4134 
L 1259 4134 
L 1259 2759 
L 3109 2759 
L 3109 2228 
L 1259 2228 
L 1259 0 
L 628 0 
L 628 4666 
z
" transform="scale(0.015625)"/>
       </defs>
       <use xlink:href="#DejaVuSans-46"/>
       <use xlink:href="#DejaVuSans-61" transform="translate(48.394531 0)"/>
       <use xlink:href="#DejaVuSans-64" transform="translate(109.673828 0)"/>
       <use xlink:href="#DejaVuSans-65" transform="translate(173.150391 0)"/>
       <use xlink:href="#DejaVuSans-72" transform="translate(234.673828 0)"/>
      </g>
     </g>
    </g>
    <g id="ytick_22">
     <g id="line2d_31">
      <g>
       <use xlink:href="#m39b41a87ce" x="98.62" y="179.010657" style="stroke: #000000; stroke-width: 0.8"/>
      </g>
     </g>
     <g id="text_32">
      <!-- Variety -->
      <g transform="translate(56.545 182.809875) scale(0.1 -0.1)">
       <use xlink:href="#DejaVuSans-56"/>
       <use xlink:href="#DejaVuSans-61" transform="translate(60.658203 0)"/>
       <use xlink:href="#DejaVuSans-72" transform="translate(121.9375 0)"/>
       <use xlink:href="#DejaVuSans-69" transform="translate(163.050781 0)"/>
       <use xlink:href="#DejaVuSans-65" transform="translate(190.833984 0)"/>
       <use xlink:href="#DejaVuSans-74" transform="translate(252.357422 0)"/>
       <use xlink:href="#DejaVuSans-79" transform="translate(291.566406 0)"/>
      </g>
     </g>
    </g>
    <g id="ytick_23">
     <g id="line2d_32">
      <g>
       <use xlink:href="#m39b41a87ce" x="98.62" y="163.466465" style="stroke: #000000; stroke-width: 0.8"/>
      </g>
     </g>
     <g id="text_33">
      <!-- Rough Trade -->
      <g transform="translate(29.427813 167.265683) scale(0.1 -0.1)">
       <defs>
        <path id="DejaVuSans-52" d="M 2841 2188 
Q 3044 2119 3236 1894 
Q 3428 1669 3622 1275 
L 4263 0 
L 3584 0 
L 2988 1197 
Q 2756 1666 2539 1819 
Q 2322 1972 1947 1972 
L 1259 1972 
L 1259 0 
L 628 0 
L 628 4666 
L 2053 4666 
Q 2853 4666 3247 4331 
Q 3641 3997 3641 3322 
Q 3641 2881 3436 2590 
Q 3231 2300 2841 2188 
z
M 1259 4147 
L 1259 2491 
L 2053 2491 
Q 2509 2491 2742 2702 
Q 2975 2913 2975 3322 
Q 2975 3731 2742 3939 
Q 2509 4147 2053 4147 
L 1259 4147 
z
" transform="scale(0.015625)"/>
        <path id="DejaVuSans-68" d="M 3513 2113 
L 3513 0 
L 2938 0 
L 2938 2094 
Q 2938 2591 2744 2837 
Q 2550 3084 2163 3084 
Q 1697 3084 1428 2787 
Q 1159 2491 1159 1978 
L 1159 0 
L 581 0 
L 581 4863 
L 1159 4863 
L 1159 2956 
Q 1366 3272 1645 3428 
Q 1925 3584 2291 3584 
Q 2894 3584 3203 3211 
Q 3513 2838 3513 2113 
z
" transform="scale(0.015625)"/>
        <path id="DejaVuSans-54" d="M -19 4666 
L 3928 4666 
L 3928 4134 
L 2272 4134 
L 2272 0 
L 1638 0 
L 1638 4134 
L -19 4134 
L -19 4666 
z
" transform="scale(0.015625)"/>
       </defs>
       <use xlink:href="#DejaVuSans-52"/>
       <use xlink:href="#DejaVuSans-6f" transform="translate(64.982422 0)"/>
       <use xlink:href="#DejaVuSans-75" transform="translate(126.164062 0)"/>
       <use xlink:href="#DejaVuSans-67" transform="translate(189.542969 0)"/>
       <use xlink:href="#DejaVuSans-68" transform="translate(253.019531 0)"/>
       <use xlink:href="#DejaVuSans-20" transform="translate(316.398438 0)"/>
       <use xlink:href="#DejaVuSans-54" transform="translate(348.185547 0)"/>
       <use xlink:href="#DejaVuSans-72" transform="translate(394.519531 0)"/>
       <use xlink:href="#DejaVuSans-61" transform="translate(435.632812 0)"/>
       <use xlink:href="#DejaVuSans-64" transform="translate(496.912109 0)"/>
       <use xlink:href="#DejaVuSans-65" transform="translate(560.388672 0)"/>
      </g>
     </g>
    </g>
    <g id="ytick_24">
     <g id="line2d_33">
      <g>
       <use xlink:href="#m39b41a87ce" x="98.62" y="147.922273" style="stroke: #000000; stroke-width: 0.8"/>
      </g>
     </g>
     <g id="text_34">
      <!-- Billboard -->
      <g transform="translate(47.545 151.721491) scale(0.1 -0.1)">
       <use xlink:href="#DejaVuSans-42"/>
       <use xlink:href="#DejaVuSans-69" transform="translate(68.603516 0)"/>
       <use xlink:href="#DejaVuSans-6c" transform="translate(96.386719 0)"/>
       <use xlink:href="#DejaVuSans-6c" transform="translate(124.169922 0)"/>
       <use xlink:href="#DejaVuSans-62" transform="translate(151.953125 0)"/>
       <use xlink:href="#DejaVuSans-6f" transform="translate(215.429688 0)"/>
       <use xlink:href="#DejaVuSans-61" transform="translate(276.611328 0)"/>
       <use xlink:href="#DejaVuSans-72" transform="translate(337.890625 0)"/>
       <use xlink:href="#DejaVuSans-64" transform="translate(377.253906 0)"/>
      </g>
     </g>
    </g>
    <g id="ytick_25">
     <g id="line2d_34">
      <g>
       <use xlink:href="#m39b41a87ce" x="98.62" y="132.378081" style="stroke: #000000; stroke-width: 0.8"/>
      </g>
     </g>
     <g id="text_35">
      <!-- Paste -->
      <g transform="translate(64.629375 136.1773) scale(0.1 -0.1)">
       <defs>
        <path id="DejaVuSans-50" d="M 1259 4147 
L 1259 2394 
L 2053 2394 
Q 2494 2394 2734 2622 
Q 2975 2850 2975 3272 
Q 2975 3691 2734 3919 
Q 2494 4147 2053 4147 
L 1259 4147 
z
M 628 4666 
L 2053 4666 
Q 2838 4666 3239 4311 
Q 3641 3956 3641 3272 
Q 3641 2581 3239 2228 
Q 2838 1875 2053 1875 
L 1259 1875 
L 1259 0 
L 628 0 
L 628 4666 
z
" transform="scale(0.015625)"/>
       </defs>
       <use xlink:href="#DejaVuSans-50"/>
       <use xlink:href="#DejaVuSans-61" transform="translate(55.802734 0)"/>
       <use xlink:href="#DejaVuSans-73" transform="translate(117.082031 0)"/>
       <use xlink:href="#DejaVuSans-74" transform="translate(169.181641 0)"/>
       <use xlink:href="#DejaVuSans-65" transform="translate(208.390625 0)"/>
      </g>
     </g>
    </g>
    <g id="ytick_26">
     <g id="line2d_35">
      <g>
       <use xlink:href="#m39b41a87ce" x="98.62" y="116.833889" style="stroke: #000000; stroke-width: 0.8"/>
      </g>
     </g>
     <g id="text_36">
      <!-- Rs -->
      <g transform="translate(79.462188 120.633108) scale(0.1 -0.1)">
       <use xlink:href="#DejaVuSans-52"/>
       <use xlink:href="#DejaVuSans-73" transform="translate(69.482422 0)"/>
      </g>
     </g>
    </g>
    <g id="ytick_27">
     <g id="line2d_36">
      <g>
       <use xlink:href="#m39b41a87ce" x="98.62" y="101.289697" style="stroke: #000000; stroke-width: 0.8"/>
      </g>
     </g>
     <g id="text_37">
      <!-- Pitchfork -->
      <g transform="translate(47.740313 105.088916) scale(0.1 -0.1)">
       <use xlink:href="#DejaVuSans-50"/>
       <use xlink:href="#DejaVuSans-69" transform="translate(58.052734 0)"/>
       <use xlink:href="#DejaVuSans-74" transform="translate(85.835938 0)"/>
       <use xlink:href="#DejaVuSans-63" transform="translate(125.044922 0)"/>
       <use xlink:href="#DejaVuSans-68" transform="translate(180.025391 0)"/>
       <use xlink:href="#DejaVuSans-66" transform="translate(243.404297 0)"/>
       <use xlink:href="#DejaVuSans-6f" transform="translate(278.609375 0)"/>
       <use xlink:href="#DejaVuSans-72" transform="translate(339.791016 0)"/>
       <use xlink:href="#DejaVuSans-6b" transform="translate(380.904297 0)"/>
      </g>
     </g>
    </g>
    <g id="ytick_28">
     <g id="line2d_37">
      <g>
       <use xlink:href="#m39b41a87ce" x="98.62" y="85.745505" style="stroke: #000000; stroke-width: 0.8"/>
      </g>
     </g>
     <g id="text_38">
      <!-- Npr125 -->
      <g transform="translate(54.591875 89.544724) scale(0.1 -0.1)">
       <use xlink:href="#DejaVuSans-4e"/>
       <use xlink:href="#DejaVuSans-70" transform="translate(74.804688 0)"/>
       <use xlink:href="#DejaVuSans-72" transform="translate(138.28125 0)"/>
       <use xlink:href="#DejaVuSans-31" transform="translate(179.394531 0)"/>
       <use xlink:href="#DejaVuSans-32" transform="translate(243.017578 0)"/>
       <use xlink:href="#DejaVuSans-35" transform="translate(306.640625 0)"/>
      </g>
     </g>
    </g>
    <g id="ytick_29">
     <g id="line2d_38">
      <g>
       <use xlink:href="#m39b41a87ce" x="98.62" y="70.201313" style="stroke: #000000; stroke-width: 0.8"/>
      </g>
     </g>
     <g id="text_39">
      <!-- Consequence -->
      <g transform="translate(23.990313 74.000532) scale(0.1 -0.1)">
       <defs>
        <path id="DejaVuSans-71" d="M 947 1747 
Q 947 1113 1208 752 
Q 1469 391 1925 391 
Q 2381 391 2643 752 
Q 2906 1113 2906 1747 
Q 2906 2381 2643 2742 
Q 2381 3103 1925 3103 
Q 1469 3103 1208 2742 
Q 947 2381 947 1747 
z
M 2906 525 
Q 2725 213 2448 61 
Q 2172 -91 1784 -91 
Q 1150 -91 751 415 
Q 353 922 353 1747 
Q 353 2572 751 3078 
Q 1150 3584 1784 3584 
Q 2172 3584 2448 3432 
Q 2725 3281 2906 2969 
L 2906 3500 
L 3481 3500 
L 3481 -1331 
L 2906 -1331 
L 2906 525 
z
" transform="scale(0.015625)"/>
       </defs>
       <use xlink:href="#DejaVuSans-43"/>
       <use xlink:href="#DejaVuSans-6f" transform="translate(69.824219 0)"/>
       <use xlink:href="#DejaVuSans-6e" transform="translate(131.005859 0)"/>
       <use xlink:href="#DejaVuSans-73" transform="translate(194.384766 0)"/>
       <use xlink:href="#DejaVuSans-65" transform="translate(246.484375 0)"/>
       <use xlink:href="#DejaVuSans-71" transform="translate(308.007812 0)"/>
       <use xlink:href="#DejaVuSans-75" transform="translate(371.484375 0)"/>
       <use xlink:href="#DejaVuSans-65" transform="translate(434.863281 0)"/>
       <use xlink:href="#DejaVuSans-6e" transform="translate(496.386719 0)"/>
       <use xlink:href="#DejaVuSans-63" transform="translate(559.765625 0)"/>
       <use xlink:href="#DejaVuSans-65" transform="translate(614.746094 0)"/>
      </g>
     </g>
    </g>
   </g>
   <g id="patch_61">
    <path d="M 98.62 534.04 
L 98.62 41.6 
" style="fill: none; stroke: #000000; stroke-width: 0.8; stroke-linejoin: miter; stroke-linecap: square"/>
   </g>
   <g id="patch_62">
    <path d="M 98.62 534.04 
L 701.280292 534.04 
" style="fill: none; stroke: #000000; stroke-width: 0.8; stroke-linejoin: miter; stroke-linecap: square"/>
   </g>
   <g id="text_40">
    <!-- Artist-Level Exclusivity by Source (Best of 2025) -->
    <g transform="translate(231.459052 21.6) scale(0.14 -0.14)">
     <defs>
      <path id="DejaVuSans-2d" d="M 313 2009 
L 1997 2009 
L 1997 1497 
L 313 1497 
L 313 2009 
z
" transform="scale(0.015625)"/>
      <path id="DejaVuSans-28" d="M 1984 4856 
Q 1566 4138 1362 3434 
Q 1159 2731 1159 2009 
Q 1159 1288 1364 580 
Q 1569 -128 1984 -844 
L 1484 -844 
Q 1016 -109 783 600 
Q 550 1309 550 2009 
Q 550 2706 781 3412 
Q 1013 4119 1484 4856 
L 1984 4856 
z
" transform="scale(0.015625)"/>
      <path id="DejaVuSans-29" d="M 513 4856 
L 1013 4856 
Q 1481 4119 1714 3412 
Q 1947 2706 1947 2009 
Q 1947 1309 1714 600 
Q 1481 -109 1013 -844 
L 513 -844 
Q 928 -128 1133 580 
Q 1338 1288 1338 2009 
Q 1338 2731 1133 3434 
Q 928 4138 513 4856 
z
" transform="scale(0.015625)"/>
     </defs>
     <use xlink:href="#DejaVuSans-41"/>
     <use xlink:href="#DejaVuSans-72" transform="translate(68.408203 0)"/>
     <use xlink:href="#DejaVuSans-74" transform="translate(109.521484 0)"/>
     <use xlink:href="#DejaVuSans-69" transform="translate(148.730469 0)"/>
     <use xlink:href="#DejaVuSans-73" transform="translate(176.513672 0)"/>
     <use xlink:href="#DejaVuSans-74" transform="translate(228.613281 0)"/>
     <use xlink:href="#DejaVuSans-2d" transform="translate(267.822266 0)"/>
     <use xlink:href="#DejaVuSans-4c" transform="translate(303.90625 0)"/>
     <use xlink:href="#DejaVuSans-65" transform="translate(357.869141 0)"/>
     <use xlink:href="#DejaVuSans-76" transform="translate(419.392578 0)"/>
     <use xlink:href="#DejaVuSans-65" transform="translate(478.572266 0)"/>
     <use xlink:href="#DejaVuSans-6c" transform="translate(540.095703 0)"/>
     <use xlink:href="#DejaVuSans-20" transform="translate(567.878906 0)"/>
     <use xlink:href="#DejaVuSans-45" transform="translate(599.666016 0)"/>
     <use xlink:href="#DejaVuSans-78" transform="translate(662.849609 0)"/>
     <use xlink:href="#DejaVuSans-63" transform="translate(720.279297 0)"/>
     <use xlink:href="#DejaVuSans-6c" transform="translate(775.259766 0)"/>
     <use xlink:href="#DejaVuSans-75" transform="translate(803.042969 0)"/>
     <use xlink:href="#DejaVuSans-73" transform="translate(866.421875 0)"/>
     <use xlink:href="#DejaVuSans-69" transform="translate(918.521484 0)"/>
     <use xlink:href="#DejaVuSans-76" transform="translate(946.304688 0)"/>
     <use xlink:href="#DejaVuSans-69" transform="translate(1005.484375 0)"/>
     <use xlink:href="#DejaVuSans-74" transform="translate(1033.267578 0)"/>
     <use xlink:href="#DejaVuSans-79" transform="translate(1072.476562 0)"/>
     <use xlink:href="#DejaVuSans-20" transform="translate(1131.65625 0)"/>
     <use xlink:href="#DejaVuSans-62" transform="translate(1163.443359 0)"/>
     <use xlink:href="#DejaVuSans-79" transform="translate(1226.919922 0)"/>
     <use xlink:href="#DejaVuSans-20" transform="translate(1286.099609 0)"/>
     <use xlink:href="#DejaVuSans-53" transform="translate(1317.886719 0)"/>
     <use xlink:href="#DejaVuSans-6f" transform="translate(1381.363281 0)"/>
     <use xlink:href="#DejaVuSans-75" transform="translate(1442.544922 0)"/>
     <use xlink:href="#DejaVuSans-72" transform="translate(1505.923828 0)"/>
     <use xlink:href="#DejaVuSans-63" transform="translate(1544.787109 0)"/>
     <use xlink:href="#DejaVuSans-65" transform="translate(1599.767578 0)"/>
     <use xlink:href="#DejaVuSans-20" transform="translate(1661.291016 0)"/>
     <use xlink:href="#DejaVuSans-28" transform="translate(1693.078125 0)"/>
     <use xlink:href="#DejaVuSans-42" transform="translate(1732.091797 0)"/>
     <use xlink:href="#DejaVuSans-65" transform="translate(1800.695312 0)"/>
     <use xlink:href="#DejaVuSans-73" transform="translate(1862.21875 0)"/>
     <use xlink:href="#DejaVuSans-74" transform="translate(1914.318359 0)"/>
     <use xlink:href="#DejaVuSans-20" transform="translate(1953.527344 0)"/>
     <use xlink:href="#DejaVuSans-6f" transform="translate(1985.314453 0)"/>
     <use xlink:href="#DejaVuSans-66" transform="translate(2046.496094 0)"/>
     <use xlink:href="#DejaVuSans-20" transform="translate(2081.701172 0)"/>
     <use xlink:href="#DejaVuSans-32" transform="translate(2113.488281 0)"/>
     <use xlink:href="#DejaVuSans-30" transform="translate(2177.111328 0)"/>
     <use xlink:href="#DejaVuSans-32" transform="translate(2240.734375 0)"/>
     <use xlink:href="#DejaVuSans-35" transform="translate(2304.357422 0)"/>
     <use xlink:href="#DejaVuSans-29" transform="translate(2367.980469 0)"/>
    </g>
   </g>
   <g id="legend_1">
    <g id="patch_63">
     <path d="M 580.377167 529.04 
L 694.280292 529.04 
Q 696.280292 529.04 696.280292 527.04 
L 696.280292 498.68375 
Q 696.280292 496.68375 694.280292 496.68375 
L 580.377167 496.68375 
Q 578.377167 496.68375 578.377167 498.68375 
L 578.377167 527.04 
Q 578.377167 529.04 580.377167 529.04 
z
" style="fill: #ffffff; opacity: 0.8; stroke: #cccccc; stroke-linejoin: miter"/>
    </g>
    <g id="patch_64">
     <path d="M 582.377167 508.282188 
L 602.377167 508.282188 
L 602.377167 501.282188 
L 582.377167 501.282188 
z
" style="fill: #e0e0e0"/>
    </g>
    <g id="text_41">
     <!-- Shared Artists -->
     <g transform="translate(610.377167 508.282188) scale(0.1 -0.1)">
      <use xlink:href="#DejaVuSans-53"/>
      <use xlink:href="#DejaVuSans-68" transform="translate(63.476562 0)"/>
      <use xlink:href="#DejaVuSans-61" transform="translate(126.855469 0)"/>
      <use xlink:href="#DejaVuSans-72" transform="translate(188.134766 0)"/>
      <use xlink:href="#DejaVuSans-65" transform="translate(226.998047 0)"/>
      <use xlink:href="#DejaVuSans-64" transform="translate(288.521484 0)"/>
      <use xlink:href="#DejaVuSans-20" transform="translate(351.998047 0)"/>
      <use xlink:href="#DejaVuSans-41" transform="translate(383.785156 0)"/>
      <use xlink:href="#DejaVuSans-72" transform="translate(452.193359 0)"/>
      <use xlink:href="#DejaVuSans-74" transform="translate(493.306641 0)"/>
      <use xlink:href="#DejaVuSans-69" transform="translate(532.515625 0)"/>
      <use xlink:href="#DejaVuSans-73" transform="translate(560.298828 0)"/>
      <use xlink:href="#DejaVuSans-74" transform="translate(612.398438 0)"/>
      <use xlink:href="#DejaVuSans-73" transform="translate(651.607422 0)"/>
     </g>
    </g>
    <g id="patch_65">
     <path d="M 582.377167 522.960312 
L 602.377167 522.960312 
L 602.377167 515.960312 
L 582.377167 515.960312 
z
" style="fill: #cc8899"/>
    </g>
    <g id="text_42">
     <!-- Exclusive Artists -->
     <g transform="translate(610.377167 522.960312) scale(0.1 -0.1)">
      <use xlink:href="#DejaVuSans-45"/>
      <use xlink:href="#DejaVuSans-78" transform="translate(63.183594 0)"/>
      <use xlink:href="#DejaVuSans-63" transform="translate(120.613281 0)"/>
      <use xlink:href="#DejaVuSans-6c" transform="translate(175.59375 0)"/>
      <use xlink:href="#DejaVuSans-75" transform="translate(203.376953 0)"/>
      <use xlink:href="#DejaVuSans-73" transform="translate(266.755859 0)"/>
      <use xlink:href="#DejaVuSans-69" transform="translate(318.855469 0)"/>
      <use xlink:href="#DejaVuSans-76" transform="translate(346.638672 0)"/>
      <use xlink:href="#DejaVuSans-65" transform="translate(405.818359 0)"/>
      <use xlink:href="#DejaVuSans-20" transform="translate(467.341797 0)"/>
      <use xlink:href="#DejaVuSans-41" transform="translate(499.128906 0)"/>
      <use xlink:href="#DejaVuSans-72" transform="translate(567.537109 0)"/>
      <use xlink:href="#DejaVuSans-74" transform="translate(608.650391 0)"/>
      <use xlink:href="#DejaVuSans-69" transform="translate(647.859375 0)"/>
      <use xlink:href="#DejaVuSans-73" transform="translate(675.642578 0)"/>
      <use xlink:href="#DejaVuSans-74" transform="translate(727.742188 0)"/>
      <use xlink:href="#DejaVuSans-73" transform="translate(766.951172 0)"/>
     </g>
    </g>
   </g>
  </g>
 </g>
 <defs>
  <clipPath id="pd90b55c36a">
   <rect x="98.62" y="41.6" width="602.660292" height="492.44"/>
  </clipPath>
 </defs>
</svg>
