<svg class="main-svg" xmlns="http://www.w3.org/2000/svg" xmlns:xlink="http://www.w3.org/1999/xlink" width="700" height="1000" style="" viewBox="0 0 700 1000"><rect x="0" y="0" width="700" height="1000" style="fill: rgb(255, 255, 255); fill-opacity: 1;"/><defs id="defs-ecd28f"><g class="clips"/><g class="gradients"/><g class="patterns"/></defs><g class="bglayer"/><g class="layer-below"><g class="imagelayer"/><g class="shapelayer"/></g><g class="cartesianlayer"/><g class="polarlayer"/><g class="smithlayer"/><g class="ternarylayer"/><g class="geolayer"/><g class="funnelarealayer"/><g class="pielayer"/><g class="iciclelayer"/><g class="treemaplayer"/><g class="sunburstlayer"/><g class="glimages"/><g class="sankey" transform="translate(50,80)matrix(1 0 0 1 0 0)" style="box-sizing: content-box; position: absolute; left: 0px; shape-rendering: geometricprecision; pointer-events: none;"><g class="sankey-links" style="fill: none;"><path class="sankey-link" d="M40,349.2988980716252C300,349.2988980716252 300,195.90909090909076 560,195.90909090909076L560,200.5454545454544C300,200.5454545454544 300,353.93526170798884 40,353.93526170798884Z" style="stroke: rgb(68, 68, 68); stroke-opacity: 1; fill: rgb(70, 130, 180); fill-opacity: 1; stroke-width: 0; opacity: 1;"/><path class="sankey-link" d="M40,353.93526170798884C300,353.93526170798884 300,200.5454545454544 560,200.5454545454544L560,205.18181818181802C300,205.18181818181802 300,358.57162534435247 40,358.57162534435247Z" style="stroke: rgb(68, 68, 68); stroke-opacity: 1; fill: rgb(70, 130, 180); fill-opacity: 1; stroke-width: 0; opacity: 1;"/><path class="sankey-link" d="M40,749.2079889807168C300,749.2079889807168 300,246.90909090909065 560,246.90909090909065L560,251.54545454545428C300,251.54545454545428 300,753.8443526170805 40,753.8443526170805Z" style="stroke: rgb(68, 68, 68); stroke-opacity: 1; fill: rgb(255, 215, 0); fill-opacity: 1; stroke-width: 0; opacity: 1;"/><path class="sankey-link" d="M40,753.8443526170804C300,753.8443526170804 300,251.54545454545428 560,251.54545454545428L560,256.1818181818179C300,256.1818181818179 300,758.4807162534441 40,758.4807162534441Z" style="stroke: rgb(68, 68, 68); stroke-opacity: 1; fill: rgb(255, 215, 0); fill-opacity: 1; stroke-width: 0; opacity: 1;"/><path class="sankey-link" d="M40,358.57162534435247C300,358.57162534435247 300,205.18181818181802 560,205.18181818181802L560,209.81818181818164C300,209.81818181818164 300,363.2079889807161 40,363.2079889807161Z" style="stroke: rgb(68, 68, 68); stroke-opacity: 1; fill: rgb(70, 130, 180); fill-opacity: 1; stroke-width: 0; opacity: 1;"/><path class="sankey-link" d="M40,363.2079889807161C300,363.2079889807161 300,209.81818181818164 560,209.81818181818164L560,214.45454545454527C300,214.45454545454527 300,367.8443526170797 40,367.8443526170797Z" style="stroke: rgb(68, 68, 68); stroke-opacity: 1; fill: rgb(70, 130, 180); fill-opacity: 1; stroke-width: 0; opacity: 1;"/><path class="sankey-link" d="M40,367.8443526170797C300,367.8443526170797 300,214.45454545454527 560,214.45454545454527L560,219.0909090909089C300,219.0909090909089 300,372.48071625344335 40,372.48071625344335Z" style="stroke: rgb(68, 68, 68); stroke-opacity: 1; fill: rgb(70, 130, 180); fill-opacity: 1; stroke-width: 0; opacity: 1;"/><path class="sankey-link" d="M40,758.480716253444C300,758.480716253444 300,256.1818181818179 560,256.1818181818179L560,260.81818181818153C300,260.81818181818153 300,763.1170798898078 40,763.1170798898078Z" style="stroke: rgb(68, 68, 68); stroke-opacity: 1; fill: rgb(255, 215, 0); fill-opacity: 1; stroke-width: 0; opacity: 1;"/><path class="sankey-link" d="M40,551.5716253443525C300,551.5716253443525 300,223.72727272727252 560,223.72727272727252L560,228.36363636363615C300,228.36363636363615 300,556.2079889807162 40,556.2079889807162Z" style="stroke: rgb(68, 68, 68); stroke-opacity: 1; fill: rgb(147, 112, 219); fill-opacity: 1; stroke-width: 0; opacity: 1;"/><path class="sankey-link" d="M40,556.2079889807161C300,556.2079889807161 300,228.36363636363615 560,228.36363636363615L560,232.99999999999977C300,232.99999999999977 300,560.8443526170798 40,560.8443526170798Z" style="stroke: rgb(68, 68, 68); stroke-opacity: 1; fill: rgb(147, 112, 219); fill-opacity: 1; stroke-width: 0; opacity: 1;"/><path class="sankey-link" d="M40,149.34343434343396C300,149.34343434343396 300,186.6363636363635 560,186.6363636363635L560,191.27272727272714C300,191.27272727272714 300,153.97979797979758 40,153.97979797979758Z" style="stroke: rgb(68, 68, 68); stroke-opacity: 1; fill: rgb(60, 179, 113); fill-opacity: 1; stroke-width: 0; opacity: 1;"/><path class="sankey-link" d="M40,560.8443526170797C300,560.8443526170797 300,232.99999999999977 560,232.99999999999977L560,237.6363636363634C300,237.6363636363634 300,565.4807162534435 40,565.4807162534435Z" style="stroke: rgb(68, 68, 68); stroke-opacity: 1; fill: rgb(147, 112, 219); fill-opacity: 1; stroke-width: 0; opacity: 1;"/><path class="sankey-link" d="M40,372.48071625344335C300,372.48071625344335 300,219.0909090909089 560,219.0909090909089L560,223.72727272727252C300,223.72727272727252 300,377.117079889807 40,377.117079889807Z" style="stroke: rgb(68, 68, 68); stroke-opacity: 1; fill: rgb(70, 130, 180); fill-opacity: 1; stroke-width: 0; opacity: 1;"/><path class="sankey-link" d="M40,565.4807162534433C300,565.4807162534433 300,237.6363636363634 560,237.6363636363634L560,242.27272727272702C300,242.27272727272702 300,570.1170798898071 40,570.1170798898071Z" style="stroke: rgb(68, 68, 68); stroke-opacity: 1; fill: rgb(147, 112, 219); fill-opacity: 1; stroke-width: 0; opacity: 1;"/><path class="sankey-link" d="M40,153.97979797979758C300,153.97979797979758 300,191.27272727272714 560,191.27272727272714L560,195.90909090909076C300,195.90909090909076 300,158.6161616161612 40,158.6161616161612Z" style="stroke: rgb(68, 68, 68); stroke-opacity: 1; fill: rgb(60, 179, 113); fill-opacity: 1; stroke-width: 0; opacity: 1;"/><path class="sankey-link" d="M40,570.117079889807C300,570.117079889807 300,242.27272727272702 560,242.27272727272702L560,246.90909090909065C300,246.90909090909065 300,574.7534435261707 40,574.7534435261707Z" style="stroke: rgb(68, 68, 68); stroke-opacity: 1; fill: rgb(147, 112, 219); fill-opacity: 1; stroke-width: 0; opacity: 1;"/><path class="sankey-link" d="M40,519.1170798898071C300,519.1170798898071 300,109.54545454545436 560,109.54545454545436L560,114.18181818181799C300,114.18181818181799 300,523.7534435261708 40,523.7534435261708Z" style="stroke: rgb(68, 68, 68); stroke-opacity: 1; fill: rgb(147, 112, 219); fill-opacity: 1; stroke-width: 0; opacity: 1;"/><path class="sankey-link" d="M40,744.5716253443532C300,744.5716253443532 300,141.9999999999998 560,141.9999999999998L560,146.63636363636343C300,146.63636363636343 300,749.2079889807169 40,749.2079889807169Z" style="stroke: rgb(68, 68, 68); stroke-opacity: 1; fill: rgb(255, 215, 0); fill-opacity: 1; stroke-width: 0; opacity: 1;"/><path class="sankey-link" d="M40,523.7534435261707C300,523.7534435261707 300,114.181818181818 560,114.181818181818L560,118.81818181818163C300,118.81818181818163 300,528.3898071625345 40,528.3898071625345Z" style="stroke: rgb(68, 68, 68); stroke-opacity: 1; fill: rgb(147, 112, 219); fill-opacity: 1; stroke-width: 0; opacity: 1;"/><path class="sankey-link" d="M40,528.3898071625343C300,528.3898071625343 300,118.81818181818164 560,118.81818181818164L560,123.45454545454527C300,123.45454545454527 300,533.0261707988981 40,533.0261707988981Z" style="stroke: rgb(68, 68, 68); stroke-opacity: 1; fill: rgb(147, 112, 219); fill-opacity: 1; stroke-width: 0; opacity: 1;"/><path class="sankey-link" d="M40,533.026170798898C300,533.026170798898 300,123.45454545454528 560,123.45454545454528L560,128.09090909090892C300,128.09090909090892 300,537.6625344352617 40,537.6625344352617Z" style="stroke: rgb(68, 68, 68); stroke-opacity: 1; fill: rgb(147, 112, 219); fill-opacity: 1; stroke-width: 0; opacity: 1;"/><path class="sankey-link" d="M40,135.43434343434308C300,135.43434343434308 300,81.72727272727252 560,81.72727272727252L560,86.36363636363615C300,86.36363636363615 300,140.0707070707067 40,140.0707070707067Z" style="stroke: rgb(68, 68, 68); stroke-opacity: 1; fill: rgb(60, 179, 113); fill-opacity: 1; stroke-width: 0; opacity: 1;"/><path class="sankey-link" d="M40,335.38980716253434C300,335.38980716253434 300,95.63636363636344 560,95.63636363636344L560,100.27272727272707C300,100.27272727272707 300,340.02617079889797 40,340.02617079889797Z" style="stroke: rgb(68, 68, 68); stroke-opacity: 1; fill: rgb(70, 130, 180); fill-opacity: 1; stroke-width: 0; opacity: 1;"/><path class="sankey-link" d="M40,340.02617079889797C300,340.02617079889797 300,100.27272727272708 560,100.27272727272708L560,104.90909090909071C300,104.90909090909071 300,344.6625344352616 40,344.6625344352616Z" style="stroke: rgb(68, 68, 68); stroke-opacity: 1; fill: rgb(70, 130, 180); fill-opacity: 1; stroke-width: 0; opacity: 1;"/><path class="sankey-link" d="M40,537.6625344352616C300,537.6625344352616 300,128.09090909090892 560,128.09090909090892L560,132.72727272727255C300,132.72727272727255 300,542.2988980716253 40,542.2988980716253Z" style="stroke: rgb(68, 68, 68); stroke-opacity: 1; fill: rgb(147, 112, 219); fill-opacity: 1; stroke-width: 0; opacity: 1;"/><path class="sankey-link" d="M40,542.2988980716252C300,542.2988980716252 300,132.72727272727255 560,132.72727272727255L560,137.36363636363618C300,137.36363636363618 300,546.935261707989 40,546.935261707989Z" style="stroke: rgb(68, 68, 68); stroke-opacity: 1; fill: rgb(147, 112, 219); fill-opacity: 1; stroke-width: 0; opacity: 1;"/><path class="sankey-link" d="M40,140.0707070707067C300,140.0707070707067 300,86.36363636363616 560,86.36363636363616L560,90.99999999999979C300,90.99999999999979 300,144.70707070707033 40,144.70707070707033Z" style="stroke: rgb(68, 68, 68); stroke-opacity: 1; fill: rgb(60, 179, 113); fill-opacity: 1; stroke-width: 0; opacity: 1;"/><path class="sankey-link" d="M40,344.6625344352616C300,344.6625344352616 300,104.90909090909072 560,104.90909090909072L560,109.54545454545435C300,109.54545454545435 300,349.2988980716252 40,349.2988980716252Z" style="stroke: rgb(68, 68, 68); stroke-opacity: 1; fill: rgb(70, 130, 180); fill-opacity: 1; stroke-width: 0; opacity: 1;"/><path class="sankey-link" d="M40,546.9352617079888C300,546.9352617079888 300,137.36363636363618 560,137.36363636363618L560,141.9999999999998C300,141.9999999999998 300,551.5716253443526 40,551.5716253443526Z" style="stroke: rgb(68, 68, 68); stroke-opacity: 1; fill: rgb(147, 112, 219); fill-opacity: 1; stroke-width: 0; opacity: 1;"/><path class="sankey-link" d="M40,144.70707070707033C300,144.70707070707033 300,90.9999999999998 560,90.9999999999998L560,95.63636363636343C300,95.63636363636343 300,149.34343434343396 40,149.34343434343396Z" style="stroke: rgb(68, 68, 68); stroke-opacity: 1; fill: rgb(60, 179, 113); fill-opacity: 1; stroke-width: 0; opacity: 1;"/><path class="sankey-link" d="M40,763.1170798898077C300,763.1170798898077 300,347.181818181818 560,347.181818181818L560,351.81818181818164C300,351.81818181818164 300,767.7534435261714 40,767.7534435261714Z" style="stroke: rgb(68, 68, 68); stroke-opacity: 1; fill: rgb(255, 215, 0); fill-opacity: 1; stroke-width: 0; opacity: 1;"/><path class="sankey-link" d="M40,377.117079889807C300,377.117079889807 300,300.81818181818176 560,300.81818181818176L560,305.4545454545454C300,305.4545454545454 300,381.7534435261706 40,381.7534435261706Z" style="stroke: rgb(68, 68, 68); stroke-opacity: 1; fill: rgb(70, 130, 180); fill-opacity: 1; stroke-width: 0; opacity: 1;"/><path class="sankey-link" d="M40,381.7534435261706C300,381.7534435261706 300,305.4545454545454 560,305.4545454545454L560,310.090909090909C300,310.090909090909 300,386.3898071625342 40,386.3898071625342Z" style="stroke: rgb(68, 68, 68); stroke-opacity: 1; fill: rgb(70, 130, 180); fill-opacity: 1; stroke-width: 0; opacity: 1;"/><path class="sankey-link" d="M40,767.7534435261713C300,767.7534435261713 300,351.81818181818164 560,351.81818181818164L560,356.45454545454527C300,356.45454545454527 300,772.389807162535 40,772.389807162535Z" style="stroke: rgb(68, 68, 68); stroke-opacity: 1; fill: rgb(255, 215, 0); fill-opacity: 1; stroke-width: 0; opacity: 1;"/><path class="sankey-link" d="M40,386.3898071625342C300,386.3898071625342 300,310.090909090909 560,310.090909090909L560,314.72727272727263C300,314.72727272727263 300,391.02617079889785 40,391.02617079889785Z" style="stroke: rgb(68, 68, 68); stroke-opacity: 1; fill: rgb(70, 130, 180); fill-opacity: 1; stroke-width: 0; opacity: 1;"/><path class="sankey-link" d="M40,391.02617079889785C300,391.02617079889785 300,314.72727272727263 560,314.72727272727263L560,319.36363636363626C300,319.36363636363626 300,395.6625344352615 40,395.6625344352615Z" style="stroke: rgb(68, 68, 68); stroke-opacity: 1; fill: rgb(70, 130, 180); fill-opacity: 1; stroke-width: 0; opacity: 1;"/><path class="sankey-link" d="M40,772.3898071625349C300,772.3898071625349 300,356.45454545454527 560,356.45454545454527L560,361.0909090909089C300,361.0909090909089 300,777.0261707988986 40,777.0261707988986Z" style="stroke: rgb(68, 68, 68); stroke-opacity: 1; fill: rgb(255, 215, 0); fill-opacity: 1; stroke-width: 0; opacity: 1;"/><path class="sankey-link" d="M40,574.7534435261706C300,574.7534435261706 300,323.9999999999999 560,323.9999999999999L560,328.6363636363635C300,328.6363636363635 300,579.3898071625343 40,579.3898071625343Z" style="stroke: rgb(68, 68, 68); stroke-opacity: 1; fill: rgb(147, 112, 219); fill-opacity: 1; stroke-width: 0; opacity: 1;"/><path class="sankey-link" d="M40,579.3898071625342C300,579.3898071625342 300,328.6363636363635 560,328.6363636363635L560,333.27272727272714C300,333.27272727272714 300,584.026170798898 40,584.026170798898Z" style="stroke: rgb(68, 68, 68); stroke-opacity: 1; fill: rgb(147, 112, 219); fill-opacity: 1; stroke-width: 0; opacity: 1;"/><path class="sankey-link" d="M40,584.0261707988979C300,584.0261707988979 300,333.27272727272714 560,333.27272727272714L560,337.90909090909076C300,337.90909090909076 300,588.6625344352616 40,588.6625344352616Z" style="stroke: rgb(68, 68, 68); stroke-opacity: 1; fill: rgb(147, 112, 219); fill-opacity: 1; stroke-width: 0; opacity: 1;"/><path class="sankey-link" d="M40,395.6625344352615C300,395.6625344352615 300,319.36363636363626 560,319.36363636363626L560,323.9999999999999C300,323.9999999999999 300,400.2988980716251 40,400.2988980716251Z" style="stroke: rgb(68, 68, 68); stroke-opacity: 1; fill: rgb(70, 130, 180); fill-opacity: 1; stroke-width: 0; opacity: 1;"/><path class="sankey-link" d="M40,588.6625344352615C300,588.6625344352615 300,337.90909090909076 560,337.90909090909076L560,342.5454545454544C300,342.5454545454544 300,593.2988980716252 40,593.2988980716252Z" style="stroke: rgb(68, 68, 68); stroke-opacity: 1; fill: rgb(147, 112, 219); fill-opacity: 1; stroke-width: 0; opacity: 1;"/><path class="sankey-link" d="M40,593.2988980716251C300,593.2988980716251 300,342.5454545454544 560,342.5454545454544L560,347.181818181818C300,347.181818181818 300,597.9352617079888 40,597.9352617079888Z" style="stroke: rgb(68, 68, 68); stroke-opacity: 1; fill: rgb(147, 112, 219); fill-opacity: 1; stroke-width: 0; opacity: 1;"/><path class="sankey-link" d="M40,777.0261707988985C300,777.0261707988985 300,433.5454545454546 560,433.5454545454546L560,438.18181818181824C300,438.18181818181824 300,781.6625344352623 40,781.6625344352623Z" style="stroke: rgb(68, 68, 68); stroke-opacity: 1; fill: rgb(255, 215, 0); fill-opacity: 1; stroke-width: 0; opacity: 1;"/><path class="sankey-link" d="M40,400.2988980716251C300,400.2988980716251 300,405.72727272727286 560,405.72727272727286L560,410.3636363636365C300,410.3636363636365 300,404.93526170798873 40,404.93526170798873Z" style="stroke: rgb(68, 68, 68); stroke-opacity: 1; fill: rgb(70, 130, 180); fill-opacity: 1; stroke-width: 0; opacity: 1;"/><path class="sankey-link" d="M40,404.93526170798873C300,404.93526170798873 300,410.3636363636365 560,410.3636363636365L560,415.0000000000001C300,415.0000000000001 300,409.57162534435236 40,409.57162534435236Z" style="stroke: rgb(68, 68, 68); stroke-opacity: 1; fill: rgb(70, 130, 180); fill-opacity: 1; stroke-width: 0; opacity: 1;"/><path class="sankey-link" d="M40,781.6625344352622C300,781.6625344352622 300,438.18181818181824 560,438.18181818181824L560,442.81818181818187C300,442.81818181818187 300,786.2988980716259 40,786.2988980716259Z" style="stroke: rgb(68, 68, 68); stroke-opacity: 1; fill: rgb(255, 215, 0); fill-opacity: 1; stroke-width: 0; opacity: 1;"/><path class="sankey-link" d="M40,786.2988980716258C300,786.2988980716258 300,442.81818181818187 560,442.81818181818187L560,447.4545454545455C300,447.4545454545455 300,790.9352617079895 40,790.9352617079895Z" style="stroke: rgb(68, 68, 68); stroke-opacity: 1; fill: rgb(255, 215, 0); fill-opacity: 1; stroke-width: 0; opacity: 1;"/><path class="sankey-link" d="M40,790.9352617079894C300,790.9352617079894 300,447.4545454545455 560,447.4545454545455L560,452.0909090909091C300,452.0909090909091 300,795.5716253443532 40,795.5716253443532Z" style="stroke: rgb(68, 68, 68); stroke-opacity: 1; fill: rgb(255, 215, 0); fill-opacity: 1; stroke-width: 0; opacity: 1;"/><path class="sankey-link" d="M40,597.9352617079887C300,597.9352617079887 300,419.63636363636374 560,419.63636363636374L560,424.27272727272737C300,424.27272727272737 300,602.5716253443525 40,602.5716253443525Z" style="stroke: rgb(68, 68, 68); stroke-opacity: 1; fill: rgb(147, 112, 219); fill-opacity: 1; stroke-width: 0; opacity: 1;"/><path class="sankey-link" d="M40,409.57162534435236C300,409.57162534435236 300,415.0000000000001 560,415.0000000000001L560,419.63636363636374C300,419.63636363636374 300,414.207988980716 40,414.207988980716Z" style="stroke: rgb(68, 68, 68); stroke-opacity: 1; fill: rgb(70, 130, 180); fill-opacity: 1; stroke-width: 0; opacity: 1;"/><path class="sankey-link" d="M40,602.5716253443524C300,602.5716253443524 300,424.27272727272737 560,424.27272727272737L560,428.909090909091C300,428.909090909091 300,607.2079889807161 40,607.2079889807161Z" style="stroke: rgb(68, 68, 68); stroke-opacity: 1; fill: rgb(147, 112, 219); fill-opacity: 1; stroke-width: 0; opacity: 1;"/><path class="sankey-link" d="M40,158.6161616161612C300,158.6161616161612 300,401.09090909090924 560,401.09090909090924L560,405.72727272727286C300,405.72727272727286 300,163.25252525252483 40,163.25252525252483Z" style="stroke: rgb(68, 68, 68); stroke-opacity: 1; fill: rgb(60, 179, 113); fill-opacity: 1; stroke-width: 0; opacity: 1;"/><path class="sankey-link" d="M40,607.207988980716C300,607.207988980716 300,428.909090909091 560,428.909090909091L560,433.5454545454546C300,433.5454545454546 300,611.8443526170797 40,611.8443526170797Z" style="stroke: rgb(68, 68, 68); stroke-opacity: 1; fill: rgb(147, 112, 219); fill-opacity: 1; stroke-width: 0; opacity: 1;"/><path class="sankey-link" d="M40,795.571625344353C300,795.571625344353 300,452.0909090909091 560,452.0909090909091L560,456.72727272727275C300,456.72727272727275 300,800.2079889807168 40,800.2079889807168Z" style="stroke: rgb(68, 68, 68); stroke-opacity: 1; fill: rgb(255, 215, 0); fill-opacity: 1; stroke-width: 0; opacity: 1;"/><path class="sankey-link" d="M40,611.8443526170796C300,611.8443526170796 300,515.2727272727273 560,515.2727272727273L560,519.909090909091C300,519.909090909091 300,616.4807162534433 40,616.4807162534433Z" style="stroke: rgb(68, 68, 68); stroke-opacity: 1; fill: rgb(147, 112, 219); fill-opacity: 1; stroke-width: 0; opacity: 1;"/><path class="sankey-link" d="M40,800.2079889807167C300,800.2079889807167 300,524.5454545454545 560,524.5454545454545L560,529.1818181818182C300,529.1818181818182 300,804.8443526170804 40,804.8443526170804Z" style="stroke: rgb(68, 68, 68); stroke-opacity: 1; fill: rgb(255, 215, 0); fill-opacity: 1; stroke-width: 0; opacity: 1;"/><path class="sankey-link" d="M40,414.207988980716C300,414.207988980716 300,496.72727272727275 560,496.72727272727275L560,501.3636363636364C300,501.3636363636364 300,418.8443526170796 40,418.8443526170796Z" style="stroke: rgb(68, 68, 68); stroke-opacity: 1; fill: rgb(70, 130, 180); fill-opacity: 1; stroke-width: 0; opacity: 1;"/><path class="sankey-link" d="M40,418.8443526170796C300,418.8443526170796 300,501.3636363636364 560,501.3636363636364L560,506C300,506 300,423.48071625344323 40,423.48071625344323Z" style="stroke: rgb(68, 68, 68); stroke-opacity: 1; fill: rgb(70, 130, 180); fill-opacity: 1; stroke-width: 0; opacity: 1;"/><path class="sankey-link" d="M40,804.8443526170803C300,804.8443526170803 300,529.1818181818181 560,529.1818181818181L560,533.8181818181819C300,533.8181818181819 300,809.480716253444 40,809.480716253444Z" style="stroke: rgb(68, 68, 68); stroke-opacity: 1; fill: rgb(255, 215, 0); fill-opacity: 1; stroke-width: 0; opacity: 1;"/><path class="sankey-link" d="M40,809.4807162534439C300,809.4807162534439 300,533.8181818181818 560,533.8181818181818L560,538.4545454545455C300,538.4545454545455 300,814.1170798898077 40,814.1170798898077Z" style="stroke: rgb(68, 68, 68); stroke-opacity: 1; fill: rgb(255, 215, 0); fill-opacity: 1; stroke-width: 0; opacity: 1;"/><path class="sankey-link" d="M40,814.1170798898075C300,814.1170798898075 300,538.4545454545454 560,538.4545454545454L560,543.0909090909091C300,543.0909090909091 300,818.7534435261713 40,818.7534435261713Z" style="stroke: rgb(68, 68, 68); stroke-opacity: 1; fill: rgb(255, 215, 0); fill-opacity: 1; stroke-width: 0; opacity: 1;"/><path class="sankey-link" d="M40,423.48071625344323C300,423.48071625344323 300,506 560,506L560,510.6363636363636C300,510.6363636363636 300,428.11707988980686 40,428.11707988980686Z" style="stroke: rgb(68, 68, 68); stroke-opacity: 1; fill: rgb(70, 130, 180); fill-opacity: 1; stroke-width: 0; opacity: 1;"/><path class="sankey-link" d="M40,428.11707988980686C300,428.11707988980686 300,510.6363636363637 560,510.6363636363637L560,515.2727272727274C300,515.2727272727274 300,432.7534435261705 40,432.7534435261705Z" style="stroke: rgb(68, 68, 68); stroke-opacity: 1; fill: rgb(70, 130, 180); fill-opacity: 1; stroke-width: 0; opacity: 1;"/><path class="sankey-link" d="M40,616.4807162534432C300,616.4807162534432 300,519.9090909090909 560,519.9090909090909L560,524.5454545454546C300,524.5454545454546 300,621.117079889807 40,621.117079889807Z" style="stroke: rgb(68, 68, 68); stroke-opacity: 1; fill: rgb(147, 112, 219); fill-opacity: 1; stroke-width: 0; opacity: 1;"/><path class="sankey-link" d="M40,832.662534435262C300,832.662534435262 300,697.2727272727274 560,697.2727272727274L560,701.9090909090911C300,701.9090909090911 300,837.2988980716258 40,837.2988980716258Z" style="stroke: rgb(68, 68, 68); stroke-opacity: 1; fill: rgb(255, 215, 0); fill-opacity: 1; stroke-width: 0; opacity: 1;"/><path class="sankey-link" d="M40,446.66253443526136C300,446.66253443526136 300,669.4545454545456 560,669.4545454545456L560,674.0909090909093C300,674.0909090909093 300,451.298898071625 40,451.298898071625Z" style="stroke: rgb(68, 68, 68); stroke-opacity: 1; fill: rgb(70, 130, 180); fill-opacity: 1; stroke-width: 0; opacity: 1;"/><path class="sankey-link" d="M40,837.2988980716257C300,837.2988980716257 300,701.909090909091 560,701.909090909091L560,706.5454545454547C300,706.5454545454547 300,841.9352617079894 40,841.9352617079894Z" style="stroke: rgb(68, 68, 68); stroke-opacity: 1; fill: rgb(255, 215, 0); fill-opacity: 1; stroke-width: 0; opacity: 1;"/><path class="sankey-link" d="M40,451.298898071625C300,451.298898071625 300,674.0909090909092 560,674.0909090909092L560,678.727272727273C300,678.727272727273 300,455.9352617079886 40,455.9352617079886Z" style="stroke: rgb(68, 68, 68); stroke-opacity: 1; fill: rgb(70, 130, 180); fill-opacity: 1; stroke-width: 0; opacity: 1;"/><path class="sankey-link" d="M40,639.6625344352614C300,639.6625344352614 300,683.3636363636365 560,683.3636363636365L560,688.0000000000002C300,688.0000000000002 300,644.2988980716251 40,644.2988980716251Z" style="stroke: rgb(68, 68, 68); stroke-opacity: 1; fill: rgb(147, 112, 219); fill-opacity: 1; stroke-width: 0; opacity: 1;"/><path class="sankey-link" d="M40,841.9352617079893C300,841.9352617079893 300,706.5454545454546 560,706.5454545454546L560,711.1818181818184C300,711.1818181818184 300,846.571625344353 40,846.571625344353Z" style="stroke: rgb(68, 68, 68); stroke-opacity: 1; fill: rgb(255, 215, 0); fill-opacity: 1; stroke-width: 0; opacity: 1;"/><path class="sankey-link" d="M40,644.298898071625C300,644.298898071625 300,688.0000000000001 560,688.0000000000001L560,692.6363636363639C300,692.6363636363639 300,648.9352617079887 40,648.9352617079887Z" style="stroke: rgb(68, 68, 68); stroke-opacity: 1; fill: rgb(147, 112, 219); fill-opacity: 1; stroke-width: 0; opacity: 1;"/><path class="sankey-link" d="M40,455.9352617079886C300,455.9352617079886 300,678.7272727272729 560,678.7272727272729L560,683.3636363636366C300,683.3636363636366 300,460.57162534435224 40,460.57162534435224Z" style="stroke: rgb(68, 68, 68); stroke-opacity: 1; fill: rgb(70, 130, 180); fill-opacity: 1; stroke-width: 0; opacity: 1;"/><path class="sankey-link" d="M40,648.9352617079886C300,648.9352617079886 300,692.6363636363637 560,692.6363636363637L560,697.2727272727275C300,697.2727272727275 300,653.5716253443524 40,653.5716253443524Z" style="stroke: rgb(68, 68, 68); stroke-opacity: 1; fill: rgb(147, 112, 219); fill-opacity: 1; stroke-width: 0; opacity: 1;"/><path class="sankey-link" d="M40,735.2988980716259C300,735.2988980716259 300,32.454545454545226 560,32.454545454545226L560,37.090909090908866C300,37.090909090908866 300,739.9352617079896 40,739.9352617079896Z" style="stroke: rgb(68, 68, 68); stroke-opacity: 1; fill: rgb(255, 215, 0); fill-opacity: 1; stroke-width: 0; opacity: 1;"/><path class="sankey-link" d="M40,121.52525252525218C300,121.52525252525218 300,-2.2737367544323206e-13 560,-2.2737367544323206e-13L560,4.636363636363409C300,4.636363636363409 300,126.16161616161581 40,126.16161616161581Z" style="stroke: rgb(68, 68, 68); stroke-opacity: 1; fill: rgb(60, 179, 113); fill-opacity: 1; stroke-width: 0; opacity: 1;"/><path class="sankey-link" d="M40,126.16161616161583C300,126.16161616161583 300,4.636363636363409 560,4.636363636363409L560,9.272727272727046C300,9.272727272727046 300,130.79797979797945 40,130.79797979797945Z" style="stroke: rgb(68, 68, 68); stroke-opacity: 1; fill: rgb(60, 179, 113); fill-opacity: 1; stroke-width: 0; opacity: 1;"/><path class="sankey-link" d="M40,514.4807162534435C300,514.4807162534435 300,27.818181818181593 560,27.818181818181593L560,32.45454545454523C300,32.45454545454523 300,519.1170798898072 40,519.1170798898072Z" style="stroke: rgb(68, 68, 68); stroke-opacity: 1; fill: rgb(147, 112, 219); fill-opacity: 1; stroke-width: 0; opacity: 1;"/><path class="sankey-link" d="M40,739.9352617079895C300,739.9352617079895 300,37.090909090908866 560,37.090909090908866L560,41.727272727272506C300,41.727272727272506 300,744.5716253443533 40,744.5716253443533Z" style="stroke: rgb(68, 68, 68); stroke-opacity: 1; fill: rgb(255, 215, 0); fill-opacity: 1; stroke-width: 0; opacity: 1;"/><path class="sankey-link" d="M40,321.48071625344346C300,321.48071625344346 300,13.909090909090681 560,13.909090909090681L560,18.54545454545432C300,18.54545454545432 300,326.1170798898071 40,326.1170798898071Z" style="stroke: rgb(68, 68, 68); stroke-opacity: 1; fill: rgb(70, 130, 180); fill-opacity: 1; stroke-width: 0; opacity: 1;"/><path class="sankey-link" d="M40,326.1170798898071C300,326.1170798898071 300,18.54545454545432 560,18.54545454545432L560,23.18181818181796C300,23.18181818181796 300,330.7534435261707 40,330.7534435261707Z" style="stroke: rgb(68, 68, 68); stroke-opacity: 1; fill: rgb(70, 130, 180); fill-opacity: 1; stroke-width: 0; opacity: 1;"/><path class="sankey-link" d="M40,130.79797979797945C300,130.79797979797945 300,9.272727272727046 560,9.272727272727046L560,13.909090909090683C300,13.909090909090683 300,135.43434343434308 40,135.43434343434308Z" style="stroke: rgb(68, 68, 68); stroke-opacity: 1; fill: rgb(60, 179, 113); fill-opacity: 1; stroke-width: 0; opacity: 1;"/><path class="sankey-link" d="M40,330.7534435261707C300,330.7534435261707 300,23.181818181817953 560,23.181818181817953L560,27.818181818181593C300,27.818181818181593 300,335.38980716253434 40,335.38980716253434Z" style="stroke: rgb(68, 68, 68); stroke-opacity: 1; fill: rgb(70, 130, 180); fill-opacity: 1; stroke-width: 0; opacity: 1;"/><path class="sankey-link" d="M40,855.8443526170802C300,855.8443526170802 300,856.0909090909089 560,856.0909090909089L560,860.7272727272726C300,860.7272727272726 300,860.4807162534439 40,860.4807162534439Z" style="stroke: rgb(68, 68, 68); stroke-opacity: 1; fill: rgb(255, 215, 0); fill-opacity: 1; stroke-width: 0; opacity: 1;"/><path class="sankey-link" d="M40,860.4807162534438C300,860.4807162534438 300,860.7272727272725 560,860.7272727272725L560,865.3636363636363C300,865.3636363636363 300,865.1170798898075 40,865.1170798898075Z" style="stroke: rgb(68, 68, 68); stroke-opacity: 1; fill: rgb(255, 215, 0); fill-opacity: 1; stroke-width: 0; opacity: 1;"/><path class="sankey-link" d="M40,465.20798898071587C300,465.20798898071587 300,832.9090909090908 560,832.9090909090908L560,837.5454545454545C300,837.5454545454545 300,469.8443526170795 40,469.8443526170795Z" style="stroke: rgb(68, 68, 68); stroke-opacity: 1; fill: rgb(70, 130, 180); fill-opacity: 1; stroke-width: 0; opacity: 1;"/><path class="sankey-link" d="M40,681.389807162534C300,681.389807162534 300,842.181818181818 560,842.181818181818L560,846.8181818181818C300,846.8181818181818 300,686.0261707988977 40,686.0261707988977Z" style="stroke: rgb(68, 68, 68); stroke-opacity: 1; fill: rgb(147, 112, 219); fill-opacity: 1; stroke-width: 0; opacity: 1;"/><path class="sankey-link" d="M40,686.0261707988976C300,686.0261707988976 300,846.8181818181816 560,846.8181818181816L560,851.4545454545454C300,851.4545454545454 300,690.6625344352614 40,690.6625344352614Z" style="stroke: rgb(68, 68, 68); stroke-opacity: 1; fill: rgb(147, 112, 219); fill-opacity: 1; stroke-width: 0; opacity: 1;"/><path class="sankey-link" d="M40,865.1170798898074C300,865.1170798898074 300,865.3636363636361 560,865.3636363636361L560,869.9999999999999C300,869.9999999999999 300,869.7534435261712 40,869.7534435261712Z" style="stroke: rgb(68, 68, 68); stroke-opacity: 1; fill: rgb(255, 215, 0); fill-opacity: 1; stroke-width: 0; opacity: 1;"/><path class="sankey-link" d="M40,469.8443526170795C300,469.8443526170795 300,837.5454545454544 560,837.5454545454544L560,842.1818181818181C300,842.1818181818181 300,474.4807162534431 40,474.4807162534431Z" style="stroke: rgb(68, 68, 68); stroke-opacity: 1; fill: rgb(70, 130, 180); fill-opacity: 1; stroke-width: 0; opacity: 1;"/><path class="sankey-link" d="M40,690.6625344352613C300,690.6625344352613 300,851.4545454545453 560,851.4545454545453L560,856.090909090909C300,856.090909090909 300,695.298898071625 40,695.298898071625Z" style="stroke: rgb(68, 68, 68); stroke-opacity: 1; fill: rgb(147, 112, 219); fill-opacity: 1; stroke-width: 0; opacity: 1;"/><path class="sankey-link" d="M40,653.5716253443522C300,653.5716253443522 300,755.818181818182 560,755.818181818182L560,760.4545454545457C300,760.4545454545457 300,658.207988980716 40,658.207988980716Z" style="stroke: rgb(68, 68, 68); stroke-opacity: 1; fill: rgb(147, 112, 219); fill-opacity: 1; stroke-width: 0; opacity: 1;"/><path class="sankey-link" d="M40,846.5716253443529C300,846.5716253443529 300,783.6363636363637 560,783.6363636363637L560,788.2727272727275C300,788.2727272727275 300,851.2079889807167 40,851.2079889807167Z" style="stroke: rgb(68, 68, 68); stroke-opacity: 1; fill: rgb(255, 215, 0); fill-opacity: 1; stroke-width: 0; opacity: 1;"/><path class="sankey-link" d="M40,658.2079889807159C300,658.2079889807159 300,760.4545454545456 560,760.4545454545456L560,765.0909090909093C300,765.0909090909093 300,662.8443526170796 40,662.8443526170796Z" style="stroke: rgb(68, 68, 68); stroke-opacity: 1; fill: rgb(147, 112, 219); fill-opacity: 1; stroke-width: 0; opacity: 1;"/><path class="sankey-link" d="M40,662.8443526170795C300,662.8443526170795 300,765.0909090909092 560,765.0909090909092L560,769.727272727273C300,769.727272727273 300,667.4807162534432 40,667.4807162534432Z" style="stroke: rgb(68, 68, 68); stroke-opacity: 1; fill: rgb(147, 112, 219); fill-opacity: 1; stroke-width: 0; opacity: 1;"/><path class="sankey-link" d="M40,851.2079889807166C300,851.2079889807166 300,788.2727272727274 560,788.2727272727274L560,792.9090909090911C300,792.9090909090911 300,855.8443526170803 40,855.8443526170803Z" style="stroke: rgb(68, 68, 68); stroke-opacity: 1; fill: rgb(255, 215, 0); fill-opacity: 1; stroke-width: 0; opacity: 1;"/><path class="sankey-link" d="M40,667.4807162534431C300,667.4807162534431 300,769.7272727272729 560,769.7272727272729L560,774.3636363636366C300,774.3636363636366 300,672.1170798898069 40,672.1170798898069Z" style="stroke: rgb(68, 68, 68); stroke-opacity: 1; fill: rgb(147, 112, 219); fill-opacity: 1; stroke-width: 0; opacity: 1;"/><path class="sankey-link" d="M40,672.1170798898067C300,672.1170798898067 300,774.3636363636365 560,774.3636363636365L560,779.0000000000002C300,779.0000000000002 300,676.7534435261705 40,676.7534435261705Z" style="stroke: rgb(68, 68, 68); stroke-opacity: 1; fill: rgb(147, 112, 219); fill-opacity: 1; stroke-width: 0; opacity: 1;"/><path class="sankey-link" d="M40,460.57162534435224C300,460.57162534435224 300,751.1818181818184 560,751.1818181818184L560,755.8181818181821C300,755.8181818181821 300,465.20798898071587 40,465.20798898071587Z" style="stroke: rgb(68, 68, 68); stroke-opacity: 1; fill: rgb(70, 130, 180); fill-opacity: 1; stroke-width: 0; opacity: 1;"/><path class="sankey-link" d="M40,676.7534435261704C300,676.7534435261704 300,779.0000000000001 560,779.0000000000001L560,783.6363636363639C300,783.6363636363639 300,681.3898071625341 40,681.3898071625341Z" style="stroke: rgb(68, 68, 68); stroke-opacity: 1; fill: rgb(147, 112, 219); fill-opacity: 1; stroke-width: 0; opacity: 1;"/><path class="sankey-link" d="M40,432.7534435261705C300,432.7534435261705 300,583.0909090909095 560,583.0909090909095L560,587.7272727272732C300,587.7272727272732 300,437.3898071625341 40,437.3898071625341Z" style="stroke: rgb(68, 68, 68); stroke-opacity: 1; fill: rgb(70, 130, 180); fill-opacity: 1; stroke-width: 0; opacity: 1;"/><path class="sankey-link" d="M40,818.7534435261712C300,818.7534435261712 300,615.5454545454548 560,615.5454545454548L560,620.1818181818186C300,620.1818181818186 300,823.3898071625349 40,823.3898071625349Z" style="stroke: rgb(68, 68, 68); stroke-opacity: 1; fill: rgb(255, 215, 0); fill-opacity: 1; stroke-width: 0; opacity: 1;"/><path class="sankey-link" d="M40,823.3898071625348C300,823.3898071625348 300,620.1818181818185 560,620.1818181818185L560,624.8181818181822C300,624.8181818181822 300,828.0261707988985 40,828.0261707988985Z" style="stroke: rgb(68, 68, 68); stroke-opacity: 1; fill: rgb(255, 215, 0); fill-opacity: 1; stroke-width: 0; opacity: 1;"/><path class="sankey-link" d="M40,621.1170798898069C300,621.1170798898069 300,597.0000000000003 560,597.0000000000003L560,601.6363636363641C300,601.6363636363641 300,625.7534435261706 40,625.7534435261706Z" style="stroke: rgb(68, 68, 68); stroke-opacity: 1; fill: rgb(147, 112, 219); fill-opacity: 1; stroke-width: 0; opacity: 1;"/><path class="sankey-link" d="M40,437.3898071625341C300,437.3898071625341 300,587.7272727272731 560,587.7272727272731L560,592.3636363636368C300,592.3636363636368 300,442.02617079889774 40,442.02617079889774Z" style="stroke: rgb(68, 68, 68); stroke-opacity: 1; fill: rgb(70, 130, 180); fill-opacity: 1; stroke-width: 0; opacity: 1;"/><path class="sankey-link" d="M40,625.7534435261705C300,625.7534435261705 300,601.636363636364 560,601.636363636364L560,606.2727272727277C300,606.2727272727277 300,630.3898071625342 40,630.3898071625342Z" style="stroke: rgb(68, 68, 68); stroke-opacity: 1; fill: rgb(147, 112, 219); fill-opacity: 1; stroke-width: 0; opacity: 1;"/><path class="sankey-link" d="M40,630.3898071625341C300,630.3898071625341 300,606.2727272727276 560,606.2727272727276L560,610.9090909090913C300,610.9090909090913 300,635.0261707988979 40,635.0261707988979Z" style="stroke: rgb(68, 68, 68); stroke-opacity: 1; fill: rgb(147, 112, 219); fill-opacity: 1; stroke-width: 0; opacity: 1;"/><path class="sankey-link" d="M40,635.0261707988977C300,635.0261707988977 300,610.9090909090912 560,610.9090909090912L560,615.545454545455C300,615.545454545455 300,639.6625344352615 40,639.6625344352615Z" style="stroke: rgb(68, 68, 68); stroke-opacity: 1; fill: rgb(147, 112, 219); fill-opacity: 1; stroke-width: 0; opacity: 1;"/><path class="sankey-link" d="M40,442.02617079889774C300,442.02617079889774 300,592.3636363636367 560,592.3636363636367L560,597.0000000000005C300,597.0000000000005 300,446.66253443526136 40,446.66253443526136Z" style="stroke: rgb(68, 68, 68); stroke-opacity: 1; fill: rgb(70, 130, 180); fill-opacity: 1; stroke-width: 0; opacity: 1;"/><path class="sankey-link" d="M40,828.0261707988984C300,828.0261707988984 300,624.8181818181821 560,624.8181818181821L560,629.4545454545458C300,629.4545454545458 300,832.6625344352622 40,832.6625344352622Z" style="stroke: rgb(68, 68, 68); stroke-opacity: 1; fill: rgb(255, 215, 0); fill-opacity: 1; stroke-width: 0; opacity: 1;"/></g><g class="sankey-node-set" style="cursor: move;"><g class="sankey-node" transform="translate(0.000,735.299)" style="opacity: 1;"><rect class="node-rect" width="40" height="134.45454545454527" style="stroke-width: 0.5; stroke: rgb(0, 0, 0); stroke-opacity: 1; fill: rgb(211, 211, 211); fill-opacity: 1;"/><text class="node-label" data-notex="1" x="0" y="0" text-anchor="start" transform="translate(43.25,71.42727272727264)" style="cursor: default; font-family: 'Open Sans', verdana, arial, sans-serif; font-size: 12px; fill: rgb(42, 63, 95); fill-opacity: 1; text-shadow: rgb(255, 255, 255) 1px 1px 1px, rgb(255, 255, 255) -1px -1px 1px, rgb(255, 255, 255) 1px -1px 1px, rgb(255, 255, 255) -1px 1px 1px; white-space: pre;">Critical Authority</text></g><g class="sankey-node" transform="translate(0.000,321.481)" style="opacity: 1;"><rect class="node-rect" width="40" height="153" style="stroke-width: 0.5; stroke: rgb(0, 0, 0); stroke-opacity: 1; fill: rgb(211, 211, 211); fill-opacity: 1;"/><text class="node-label" data-notex="1" x="0" y="0" text-anchor="start" transform="translate(43.25,80.7)" style="cursor: default; font-family: 'Open Sans', verdana, arial, sans-serif; font-size: 12px; fill: rgb(42, 63, 95); fill-opacity: 1; text-shadow: rgb(255, 255, 255) 1px 1px 1px, rgb(255, 255, 255) -1px -1px 1px, rgb(255, 255, 255) 1px -1px 1px, rgb(255, 255, 255) -1px 1px 1px; white-space: pre;">Mainstream</text></g><g class="sankey-node" transform="translate(0.000,121.525)" style="opacity: 1;"><rect class="node-rect" width="40" height="41.727272727272705" style="stroke-width: 0.5; stroke: rgb(0, 0, 0); stroke-opacity: 1; fill: rgb(211, 211, 211); fill-opacity: 1;"/><text class="node-label" data-notex="1" x="0" y="0" text-anchor="start" transform="translate(43.25,25.063636363636352)" style="cursor: default; font-family: 'Open Sans', verdana, arial, sans-serif; font-size: 12px; fill: rgb(42, 63, 95); fill-opacity: 1; text-shadow: rgb(255, 255, 255) 1px 1px 1px, rgb(255, 255, 255) -1px -1px 1px, rgb(255, 255, 255) 1px -1px 1px, rgb(255, 255, 255) -1px 1px 1px; white-space: pre;">Specialists</text></g><g class="sankey-node" transform="translate(0.000,514.481)" style="opacity: 1;"><rect class="node-rect" width="40" height="180.81818181818244" style="stroke-width: 0.5; stroke: rgb(0, 0, 0); stroke-opacity: 1; fill: rgb(211, 211, 211); fill-opacity: 1;"/><text class="node-label" data-notex="1" x="0" y="0" text-anchor="start" transform="translate(43.25,94.60909090909122)" style="cursor: default; font-family: 'Open Sans', verdana, arial, sans-serif; font-size: 12px; fill: rgb(42, 63, 95); fill-opacity: 1; text-shadow: rgb(255, 255, 255) 1px 1px 1px, rgb(255, 255, 255) -1px -1px 1px, rgb(255, 255, 255) 1px -1px 1px, rgb(255, 255, 255) -1px 1px 1px; white-space: pre;">Tastemakers</text></g><g class="sankey-node" transform="translate(560.000,186.636)" style="opacity: 1;"><rect class="node-rect" width="40" height="74.1818181818183" style="stroke-width: 0.5; stroke: rgb(0, 0, 0); stroke-opacity: 1; fill: rgb(211, 211, 211); fill-opacity: 1;"/><text class="node-label" data-notex="1" x="0" y="0" text-anchor="end" transform="translate(-3.25,41.29090909090915)" style="cursor: default; font-family: 'Open Sans', verdana, arial, sans-serif; font-size: 12px; fill: rgb(42, 63, 95); fill-opacity: 1; text-shadow: rgb(255, 255, 255) 1px 1px 1px, rgb(255, 255, 255) -1px -1px 1px, rgb(255, 255, 255) 1px -1px 1px, rgb(255, 255, 255) -1px 1px 1px; white-space: pre;">The Subway</text></g><g class="sankey-node" transform="translate(560.000,81.727)" style="opacity: 1;"><rect class="node-rect" width="40" height="64.90909090909099" style="stroke-width: 0.5; stroke: rgb(0, 0, 0); stroke-opacity: 1; fill: rgb(211, 211, 211); fill-opacity: 1;"/><text class="node-label" data-notex="1" x="0" y="0" text-anchor="end" transform="translate(-3.25,36.6545454545455)" style="cursor: default; font-family: 'Open Sans', verdana, arial, sans-serif; font-size: 12px; fill: rgb(42, 63, 95); fill-opacity: 1; text-shadow: rgb(255, 255, 255) 1px 1px 1px, rgb(255, 255, 255) -1px -1px 1px, rgb(255, 255, 255) 1px -1px 1px, rgb(255, 255, 255) -1px 1px 1px; white-space: pre;">Illegal</text></g><g class="sankey-node" transform="translate(560.000,300.818)" style="opacity: 1;"><rect class="node-rect" width="40" height="60.27272727272748" style="stroke-width: 0.5; stroke: rgb(0, 0, 0); stroke-opacity: 1; fill: rgb(211, 211, 211); fill-opacity: 1;"/><text class="node-label" data-notex="1" x="0" y="0" text-anchor="end" transform="translate(-3.25,34.33636363636374)" style="cursor: default; font-family: 'Open Sans', verdana, arial, sans-serif; font-size: 12px; fill: rgb(42, 63, 95); fill-opacity: 1; text-shadow: rgb(255, 255, 255) 1px 1px 1px, rgb(255, 255, 255) -1px -1px 1px, rgb(255, 255, 255) 1px -1px 1px, rgb(255, 255, 255) -1px 1px 1px; white-space: pre;">Abracadabra</text></g><g class="sankey-node" transform="translate(560.000,401.091)" style="opacity: 1;"><rect class="node-rect" width="40" height="55.63636363636351" style="stroke-width: 0.5; stroke: rgb(0, 0, 0); stroke-opacity: 1; fill: rgb(211, 211, 211); fill-opacity: 1;"/><text class="node-label" data-notex="1" x="0" y="0" text-anchor="end" transform="translate(-3.25,32.01818181818176)" style="cursor: default; font-family: 'Open Sans', verdana, arial, sans-serif; font-size: 12px; fill: rgb(42, 63, 95); fill-opacity: 1; text-shadow: rgb(255, 255, 255) 1px 1px 1px, rgb(255, 255, 255) -1px -1px 1px, rgb(255, 255, 255) 1px -1px 1px, rgb(255, 255, 255) -1px 1px 1px; white-space: pre;">Man I Need</text></g><g class="sankey-node" transform="translate(560.000,496.727)" style="opacity: 1;"><rect class="node-rect" width="40" height="46.363636363636715" style="stroke-width: 0.5; stroke: rgb(0, 0, 0); stroke-opacity: 1; fill: rgb(211, 211, 211); fill-opacity: 1;"/><text class="node-label" data-notex="1" x="0" y="0" text-anchor="end" transform="translate(-3.25,27.381818181818357)" style="cursor: default; font-family: 'Open Sans', verdana, arial, sans-serif; font-size: 12px; fill: rgb(42, 63, 95); fill-opacity: 1; text-shadow: rgb(255, 255, 255) 1px 1px 1px, rgb(255, 255, 255) -1px -1px 1px, rgb(255, 255, 255) 1px -1px 1px, rgb(255, 255, 255) -1px 1px 1px; white-space: pre;">Folded</text></g><g class="sankey-node" transform="translate(560.000,669.455)" style="opacity: 1;"><rect class="node-rect" width="40" height="41.72727272727275" style="stroke-width: 0.5; stroke: rgb(0, 0, 0); stroke-opacity: 1; fill: rgb(211, 211, 211); fill-opacity: 1;"/><text class="node-label" data-notex="1" x="0" y="0" text-anchor="end" transform="translate(-3.25,25.063636363636373)" style="cursor: default; font-family: 'Open Sans', verdana, arial, sans-serif; font-size: 12px; fill: rgb(42, 63, 95); fill-opacity: 1; text-shadow: rgb(255, 255, 255) 1px 1px 1px, rgb(255, 255, 255) -1px -1px 1px, rgb(255, 255, 255) 1px -1px 1px, rgb(255, 255, 255) -1px 1px 1px; white-space: pre;">Golden</text></g><g class="sankey-node" transform="translate(560.000,-0.000)" style="opacity: 1;"><rect class="node-rect" width="40" height="41.72727272727275" style="stroke-width: 0.5; stroke: rgb(0, 0, 0); stroke-opacity: 1; fill: rgb(211, 211, 211); fill-opacity: 1;"/><text class="node-label" data-notex="1" x="0" y="0" text-anchor="end" transform="translate(-3.25,25.063636363636373)" style="cursor: default; font-family: 'Open Sans', verdana, arial, sans-serif; font-size: 12px; fill: rgb(42, 63, 95); fill-opacity: 1; text-shadow: rgb(255, 255, 255) 1px 1px 1px, rgb(255, 255, 255) -1px -1px 1px, rgb(255, 255, 255) 1px -1px 1px, rgb(255, 255, 255) -1px 1px 1px; white-space: pre;">Berghain</text></g><g class="sankey-node" transform="translate(560.000,832.909)" style="opacity: 1;"><rect class="node-rect" width="40" height="37.090909090909236" style="stroke-width: 0.5; stroke: rgb(0, 0, 0); stroke-opacity: 1; fill: rgb(211, 211, 211); fill-opacity: 1;"/><text class="node-label" data-notex="1" x="0" y="0" text-anchor="end" transform="translate(-3.25,22.745454545454617)" style="cursor: default; font-family: 'Open Sans', verdana, arial, sans-serif; font-size: 12px; fill: rgb(42, 63, 95); fill-opacity: 1; text-shadow: rgb(255, 255, 255) 1px 1px 1px, rgb(255, 255, 255) -1px -1px 1px, rgb(255, 255, 255) 1px -1px 1px, rgb(255, 255, 255) -1px 1px 1px; white-space: pre;">BAILE INoLVIDABLE</text></g><g class="sankey-node" transform="translate(560.000,751.182)" style="opacity: 1;"><rect class="node-rect" width="40" height="41.72727272727241" style="stroke-width: 0.5; stroke: rgb(0, 0, 0); stroke-opacity: 1; fill: rgb(211, 211, 211); fill-opacity: 1;"/><text class="node-label" data-notex="1" x="0" y="0" text-anchor="end" transform="translate(-3.25,25.063636363636203)" style="cursor: default; font-family: 'Open Sans', verdana, arial, sans-serif; font-size: 12px; fill: rgb(42, 63, 95); fill-opacity: 1; text-shadow: rgb(255, 255, 255) 1px 1px 1px, rgb(255, 255, 255) -1px -1px 1px, rgb(255, 255, 255) 1px -1px 1px, rgb(255, 255, 255) -1px 1px 1px; white-space: pre;">blade bird</text></g><g class="sankey-node" transform="translate(560.000,583.091)" style="opacity: 1;"><rect class="node-rect" width="40" height="46.36363636363615" style="stroke-width: 0.5; stroke: rgb(0, 0, 0); stroke-opacity: 1; fill: rgb(211, 211, 211); fill-opacity: 1;"/><text class="node-label" data-notex="1" x="0" y="0" text-anchor="end" transform="translate(-3.25,27.381818181818073)" style="cursor: default; font-family: 'Open Sans', verdana, arial, sans-serif; font-size: 12px; fill: rgb(42, 63, 95); fill-opacity: 1; text-shadow: rgb(255, 255, 255) 1px 1px 1px, rgb(255, 255, 255) -1px -1px 1px, rgb(255, 255, 255) 1px -1px 1px, rgb(255, 255, 255) -1px 1px 1px; white-space: pre;">Manchild</text></g></g></g><defs id="topdefs-ecd28f"><g class="clips"/></defs><g class="layer-above"><g class="imagelayer"/><g class="shapelayer"/></g><g class="infolayer"><g class="g-gtitle"><text class="gtitle" x="35" y="40" text-anchor="start" dy="0em" style="opacity: 1; font-family: 'Open Sans', verdana, arial, sans-serif; font-size: 22px; fill: rgb(42, 63, 95); fill-opacity: 1; white-space: pre;">The Influence Flow: Category to Top 10</text></g><g class="first-render"/></g></svg>